<svg width="45" height="45" viewBox="0 0 45 45" fill="none" xmlns="http://www.w3.org/2000/svg">
<path d="M14.7547 17.5178C15.1082 17.5178 15.3975 17.2285 15.3975 16.8749V5.11063C15.3975 4.75706 15.1082 4.46777 14.7547 4.46777C14.4011 4.46777 14.1118 4.75706 14.1118 5.11063V16.8749C14.1118 17.2285 14.4011 17.5178 14.7547 17.5178Z" fill="#EC632A"/>
<path d="M30.9866 17.5178C31.3402 17.5178 31.6295 17.2285 31.6295 16.8749V5.11063C31.6295 4.75706 31.3402 4.46777 30.9866 4.46777C30.633 4.46777 30.3438 4.75706 30.3438 5.11063V16.8749C30.3438 17.2285 30.633 17.5178 30.9866 17.5178Z" fill="#EC632A"/>
<path d="M22.7581 7.20004C23.1117 7.20004 23.4009 6.91076 23.4009 6.55719V2.25003C23.4009 1.89646 23.1117 1.60718 22.7581 1.60718C22.4045 1.60718 22.1152 1.89646 22.1152 2.25003V6.55719C22.1152 6.91076 22.4045 7.20004 22.7581 7.20004Z" fill="#EC632A"/>
<path d="M32.7224 31.9821C29.4117 32.2393 25.201 32.6893 23.9474 33.5571C23.6903 33.75 23.4653 33.9429 23.2403 34.2V29.8928C24.1081 31.0821 25.4581 31.7893 26.8403 31.7893C27.6117 31.7893 28.351 31.5643 28.9939 31.1143C30.2153 30.2786 32.2724 26.7107 33.7831 23.85C33.976 23.4964 33.9439 23.0786 33.751 22.7571C33.526 22.4036 33.1403 22.1786 32.6903 22.2107C29.3796 22.4678 25.1689 22.9178 23.9153 23.7857C23.6581 23.9786 23.4331 24.1714 23.2081 24.4286V21.6C25.426 21.375 27.1617 19.6393 27.1617 17.5821C27.1617 16.1036 25.3939 12.375 23.8831 9.51428C23.6903 9.12856 23.3046 8.90356 22.8867 8.90356C22.4689 8.90356 22.1153 9.09643 21.9224 9.45C20.251 12.3107 18.2581 16.0393 18.2581 17.55C18.2581 19.5428 19.8331 21.1821 21.9224 21.5357V24.2678C21.7296 24.075 21.5367 23.8821 21.2796 23.7214C20.026 22.8536 15.8153 22.4036 12.5046 22.1464C12.0867 22.1143 11.6689 22.3393 11.4439 22.6928C11.251 23.0464 11.2189 23.4321 11.4117 23.7857C12.9224 26.6143 14.9796 30.1821 16.201 31.05C16.8439 31.4679 17.5831 31.725 18.3546 31.725C19.7046 31.725 21.0224 31.05 21.8903 29.925V34.1036C21.6974 33.9107 21.5046 33.7179 21.2474 33.5571C19.9939 32.6893 15.7831 32.2393 12.4724 31.9821C12.0546 31.95 11.6367 32.175 11.4117 32.5286C11.2189 32.8821 11.1867 33.2679 11.3796 33.6214C12.8903 36.45 14.9474 40.0178 16.1689 40.8857C16.8117 41.3036 17.551 41.5607 18.3224 41.5607C19.6724 41.5607 20.9903 40.8857 21.8581 39.7607V42.8464C21.8581 43.2 22.1474 43.4893 22.501 43.4893C22.8546 43.4893 23.1439 43.2 23.1439 42.8464V39.6964C24.0117 40.8857 25.3617 41.5929 26.7439 41.5929C27.5153 41.5929 28.2546 41.3678 28.8974 40.9178C30.1189 40.0821 32.176 36.5143 33.6867 33.6536C33.8796 33.3 33.8474 32.8821 33.6546 32.5607C33.5581 32.1428 33.1724 31.95 32.7224 31.9821ZM23.626 26.6464C23.7224 25.875 24.1081 25.2321 24.7189 24.8143C25.4581 24.3 28.4474 23.8178 32.5617 23.4964C30.6653 27.0321 29.0581 29.5393 28.3189 30.0536C27.901 30.3428 27.4189 30.4714 26.9046 30.4714C25.876 30.4714 24.8796 29.925 24.2689 28.9928C23.7224 28.2536 23.5296 27.4179 23.626 26.6464ZM21.1189 28.9607C20.476 29.8929 19.4796 30.4393 18.4831 30.4393C17.9689 30.4393 17.4867 30.2786 17.0689 30.0214C16.3296 29.5071 14.7224 27.0321 12.826 23.4964C16.9403 23.8178 19.9296 24.3 20.6689 24.8143C21.2796 25.2321 21.6653 25.875 21.7617 26.6464C21.7939 27.4179 21.601 28.2536 21.1189 28.9607ZM21.1189 38.7643C20.476 39.6964 19.4796 40.2428 18.4831 40.2428C17.9689 40.2428 17.4867 40.0821 17.0689 39.825C16.3296 39.3107 14.7224 36.8357 12.826 33.3C16.9403 33.6214 19.9296 34.1036 20.6689 34.6178C21.2796 35.0357 21.6653 35.6786 21.7617 36.45C21.7939 37.2214 21.601 38.0571 21.1189 38.7643ZM19.6081 17.5821C19.6081 16.6821 20.8939 13.95 22.951 10.3821C24.7831 13.95 25.9403 16.6821 25.9403 17.5821C25.9403 19.0928 24.526 20.3464 22.7581 20.3464C20.9903 20.3464 19.6081 19.0928 19.6081 17.5821ZM28.2867 39.825C27.8689 40.1143 27.3867 40.2428 26.8724 40.2428C25.8439 40.2428 24.8474 39.6964 24.2367 38.7643C23.7546 38.0571 23.5296 37.2214 23.626 36.4178C23.7224 35.6464 24.1081 35.0036 24.7189 34.5857C25.4581 34.0714 28.4474 33.5893 32.5617 33.2678C30.6653 36.8036 29.026 39.3107 28.2867 39.825Z" fill="#EC632A"/>
</svg>
