<svg width="45" height="45" viewBox="0 0 45 45" fill="none" xmlns="http://www.w3.org/2000/svg">
<path d="M40.4576 21.2947L23.004 6.57323C22.779 6.38037 22.4255 6.38037 22.1683 6.57323L4.71475 21.4232C4.4576 21.6482 4.42547 22.0661 4.65047 22.3232C4.77904 22.4839 4.9719 22.5482 5.13261 22.5482C5.29332 22.5482 5.42189 22.4839 5.55046 22.3875L22.5862 7.89109L39.6219 22.2589C39.879 22.4839 40.2969 22.4518 40.5219 22.1947C40.779 21.9375 40.7469 21.5197 40.4576 21.2947Z" fill="#EC632A"/>
<path d="M23.0039 11.3303C22.7789 11.1375 22.4253 11.1375 22.1682 11.3303L8.02534 22.8696C7.73605 23.0946 7.7039 23.5125 7.9289 23.7696C8.1539 24.0589 8.57177 24.091 8.82891 23.866L10.1468 22.7732V37.8803C10.1468 38.2339 10.436 38.5232 10.7896 38.5232H34.1575C34.511 38.5232 34.8003 38.2339 34.8003 37.8803V22.966L36.0539 24.0267C36.1825 24.1232 36.311 24.1875 36.4718 24.1875C36.6646 24.1875 36.8253 24.1232 36.9539 23.9625C37.1789 23.7053 37.1468 23.2875 36.8896 23.0625L23.0039 11.3303ZM25.7682 37.2375H19.1146V28.6553H25.7682V37.2375ZM33.5789 37.2375H27.086V28.0125C27.086 27.6589 26.7968 27.3696 26.4432 27.3696H18.5039C18.1503 27.3696 17.861 27.6589 17.861 28.0125V37.2375H11.4968V21.8732C11.4968 21.841 11.4968 21.8089 11.4968 21.7446L22.6182 12.6803L33.5789 21.9053V37.2375Z" fill="#EC632A"/>
</svg>
