<svg width="45" height="45" viewBox="0 0 45 45" fill="none" xmlns="http://www.w3.org/2000/svg">
<path d="M43.0672 5.78577H15.4887C15.1351 5.78577 14.8458 6.07505 14.8458 6.42862V10.2215C14.8458 10.5751 15.1351 10.8643 15.4887 10.8643H16.8065V24.9429L15.5208 23.3358C15.5208 23.3358 15.5208 23.3358 15.4887 23.3036C15.4887 23.2715 15.4565 23.2715 15.4565 23.2715L15.4244 23.2393C15.3922 23.2393 15.3923 23.2072 15.3601 23.2072C15.328 23.2072 15.328 23.1751 15.2958 23.1751C15.2637 23.1751 15.2637 23.1429 15.2315 23.1429C15.1994 23.1429 15.1994 23.1429 15.1673 23.1108C15.1351 23.1108 15.1351 23.1108 15.103 23.1108C15.0708 23.1108 15.0708 23.1108 15.0387 23.1108H15.0065H12.403C13.5601 22.2751 14.2994 20.9251 14.2994 19.3822C14.2994 16.8429 12.2423 14.7858 9.70297 14.7858C7.16368 14.7858 5.10654 16.8429 5.10654 19.3822C5.10654 20.9251 5.84582 22.2751 7.00297 23.1108H4.04582C3.69225 23.1108 3.40296 23.4001 3.40296 23.7536C3.40296 23.8179 3.40297 23.9143 3.43511 23.9786L1.31368 31.6929C1.21725 31.9822 1.37797 32.3036 1.66725 32.4322L3.40296 33.2358V38.7322C3.40296 39.0858 3.69225 39.3751 4.04582 39.3751H15.0065C15.3601 39.3751 15.6494 39.0858 15.6494 38.7322V30.9215L16.7422 31.9179C16.8708 32.0143 17.0315 32.0786 17.1601 32.0786C17.3208 32.0786 17.4494 32.0143 17.578 31.9179L20.5351 29.3786H23.7173C23.7815 30.5358 24.3601 31.5322 25.228 32.1429C22.6244 32.8822 20.6958 35.2608 20.6958 38.0894C20.6958 38.1858 20.6958 38.2501 20.6958 38.3465V38.4429C20.728 38.7965 20.9851 39.0536 21.3387 39.0536H32.3958H42.1673C42.5208 39.0536 42.778 38.7965 42.8101 38.4429V38.3465C42.8101 38.2501 42.8101 38.1858 42.8101 38.0894C42.8101 35.4215 41.1065 33.1393 38.6958 32.2715C39.6923 31.6608 40.3672 30.6001 40.4315 29.3786H41.4601C41.8137 29.3786 42.103 29.0893 42.103 28.7358V10.8643H43.003C43.3565 10.8643 43.6458 10.5751 43.6458 10.2215V6.42862C43.7101 6.07505 43.4208 5.78577 43.0672 5.78577ZM6.39226 19.3822C6.39226 17.5501 7.87082 16.0715 9.70297 16.0715C11.5351 16.0715 13.0137 17.5501 13.0137 19.3822C13.0137 21.2143 11.5351 22.6929 9.70297 22.6929C7.87082 22.6929 6.39226 21.2143 6.39226 19.3822ZM17.1922 30.6L15.4565 29.0251L15.4244 28.9929C15.3922 28.9929 15.3923 28.9608 15.3601 28.9608C15.328 28.9608 15.328 28.9286 15.2958 28.9286C15.2637 28.9286 15.2637 28.8965 15.2315 28.8965C15.1994 28.8965 15.1994 28.8965 15.1673 28.8643C15.1351 28.8643 15.1351 28.8643 15.103 28.8643C15.0708 28.8643 15.0387 28.8643 15.0387 28.8643H15.0065C14.9744 28.8643 14.9422 28.8643 14.9422 28.8643C14.9101 28.8643 14.9101 28.8643 14.878 28.8643C14.8458 28.8643 14.8458 28.8643 14.8137 28.8965C14.7815 28.8965 14.7815 28.8965 14.7494 28.9286C14.7173 28.9286 14.7173 28.9608 14.6851 28.9608C14.653 28.9608 14.653 28.9929 14.6208 28.9929C14.5887 28.9929 14.5887 29.0251 14.5565 29.0251C14.5244 29.0251 14.5244 29.0572 14.5244 29.0572L14.4922 29.0893C14.4922 29.1215 14.4601 29.1215 14.4601 29.1536C14.4601 29.1858 14.428 29.1858 14.428 29.2179C14.428 29.2501 14.3958 29.2501 14.3958 29.2822C14.3958 29.3143 14.3958 29.3143 14.3637 29.3465C14.3637 29.3786 14.3637 29.3786 14.3637 29.4108C14.3637 29.4429 14.3637 29.4429 14.3637 29.475V29.5072V38.1215H4.68868V33.8465L6.93868 34.9072C7.22796 35.0358 7.51725 35.1 7.80654 35.1C8.54582 35.1 9.25296 34.7143 9.63868 34.0072C9.89582 33.4929 9.9601 32.9465 9.79939 32.4001C9.63868 31.8536 9.25297 31.4358 8.73868 31.1786L6.29582 29.9893L7.09939 27.2572C7.19582 26.9036 7.00297 26.5501 6.64939 26.4536C6.29582 26.3572 5.94225 26.5501 5.84582 26.9036L4.91368 30.1501C4.81725 30.4393 4.97797 30.7608 5.23511 30.9215L8.16011 32.3679C8.35297 32.4643 8.51368 32.625 8.57797 32.85C8.64225 33.0429 8.6101 33.2679 8.51368 33.4608C8.32082 33.8143 7.87082 33.975 7.48511 33.8143L2.69583 31.5643L4.65653 24.4608H14.6851L17.3208 27.7393C17.4173 27.8679 17.6101 27.9643 17.7708 27.9643C17.9637 27.9643 18.1244 27.9322 18.253 27.8036L20.503 25.7465C20.6637 25.6179 20.8565 25.5215 21.0815 25.5536C21.3065 25.5536 21.4673 25.6501 21.628 25.8108C21.7565 25.9715 21.8208 26.1643 21.8208 26.3893C21.8208 26.5822 21.7244 26.7751 21.5637 26.9358L17.1922 30.6ZM30.8851 29.4108H33.328C33.3923 30.5679 34.003 31.5965 34.903 32.2072C33.6815 32.5608 32.5887 33.3322 31.7851 34.3286C31.078 33.4286 30.1458 32.7215 29.0851 32.3358C30.1137 31.7572 30.8208 30.6644 30.8851 29.4108ZM27.3172 31.5322C26.0637 31.5322 25.003 30.5036 25.003 29.2179C25.003 27.9322 26.0315 26.9036 27.3172 26.9036C28.603 26.9036 29.6315 27.9322 29.6315 29.2179C29.6315 30.5036 28.5708 31.5322 27.3172 31.5322ZM26.8994 33.2358C28.6994 33.2358 30.3708 34.2322 31.2065 35.8072C31.2708 35.9358 31.3351 36.0965 31.3994 36.225C31.3994 36.2572 31.4315 36.2572 31.4315 36.2893C31.4958 36.4179 31.528 36.5786 31.5922 36.7072C31.5922 36.7393 31.5923 36.7715 31.6244 36.8036C31.6565 36.9643 31.6887 37.0929 31.7208 37.2536C31.7208 37.2858 31.7208 37.2858 31.7208 37.3179C31.753 37.4786 31.753 37.6072 31.7851 37.7679V37.8001H22.0137C22.1744 35.2286 24.328 33.2358 26.8994 33.2358ZM41.5565 37.8001H33.0708C33.0708 37.6393 33.0387 37.4465 33.0065 37.2858C33.0065 37.2536 33.0065 37.1893 32.9744 37.1572C32.9423 36.9965 32.9101 36.8358 32.878 36.6751V36.6429C32.8458 36.4822 32.7815 36.3215 32.7172 36.1608C32.7172 36.1286 32.6851 36.0965 32.6851 36.0322C32.6208 35.8715 32.5565 35.7108 32.4923 35.5501C33.3923 34.1358 34.9351 33.2358 36.6387 33.2358C39.2744 33.2358 41.3958 35.2286 41.5565 37.8001ZM36.928 31.5322C35.6744 31.5322 34.6137 30.5036 34.6137 29.2179C34.6137 27.9322 35.6423 26.9036 36.928 26.9036C38.2137 26.9036 39.2423 27.9322 39.2423 29.2179C39.2423 30.5036 38.1815 31.5322 36.928 31.5322ZM40.8815 28.1251H40.3351C39.853 26.6786 38.503 25.6501 36.928 25.6501C35.353 25.6501 34.003 26.6786 33.5208 28.1251H30.7244C30.2423 26.6786 28.8922 25.6501 27.3172 25.6501C25.7422 25.6501 24.3923 26.6786 23.9101 28.1251H22.0458L22.3994 27.8036C22.8173 27.4501 23.0744 26.9358 23.1065 26.3893C23.1387 25.8429 22.978 25.2965 22.5923 24.8786C22.2387 24.4608 21.7244 24.2036 21.1458 24.1715C20.5994 24.1393 20.053 24.3322 19.6351 24.7179L18.0601 26.1643V10.8965H40.8815V28.1251ZM42.4244 9.57863H16.1315V7.07148H42.4244V9.57863Z" fill="#EC632A"/>
<path d="M29.2781 24.4286C32.621 24.4286 35.3531 21.6964 35.3531 18.3536C35.3531 15.0107 32.621 12.2786 29.2781 12.2786C25.9353 12.2786 23.2031 15.0107 23.2031 18.3536C23.2031 21.6964 25.9031 24.4286 29.2781 24.4286ZM29.2781 13.5321C31.9138 13.5321 34.0674 15.6857 34.0674 18.3214C34.0674 20.9571 31.9138 23.1107 29.2781 23.1107C26.6424 23.1107 24.4888 20.9571 24.4888 18.3214C24.4888 15.6857 26.6103 13.5321 29.2781 13.5321Z" fill="#EC632A"/>
<path d="M26.8352 18.8357H28.7638V20.7C28.7638 21.0536 29.0531 21.3428 29.4067 21.3428C29.7602 21.3428 30.0495 21.0536 30.0495 20.7V18.8357H31.9138C32.2674 18.8357 32.5567 18.5464 32.5567 18.1928C32.5567 17.8393 32.2674 17.55 31.9138 17.55H30.0495V15.6857C30.0495 15.3321 29.7602 15.0428 29.4067 15.0428C29.0531 15.0428 28.7638 15.3321 28.7638 15.6857V17.55H26.8352C26.4817 17.55 26.1924 17.8393 26.1924 18.1928C26.1924 18.5464 26.4817 18.8357 26.8352 18.8357Z" fill="#EC632A"/>
</svg>
