<svg width="45" height="45" viewBox="0 0 45 45" fill="none" xmlns="http://www.w3.org/2000/svg">
<path d="M39.9535 38.8286H38.4427V1.92862C38.4427 1.57505 38.1535 1.28577 37.7999 1.28577H31.9499C31.5963 1.28577 31.307 1.57505 31.307 1.92862V6.01077C31.307 6.01077 31.307 6.04291 31.2749 6.04291C31.1785 6.23577 31.2106 6.42862 31.307 6.58934V17.2608C31.2106 17.3572 31.1785 17.5179 31.1463 17.6465C31.1463 17.8072 31.2106 17.9358 31.307 18.0643V38.8286H27.9963L27.8678 31.0179C27.8678 30.8251 27.7713 30.6322 27.6106 30.5036L24.8463 28.5108C25.007 27.0322 25.1035 25.5536 25.1356 24.2358C25.2963 19.0286 24.5892 13.9179 24.5892 13.8536C24.5892 13.8215 24.557 13.7572 24.557 13.7251C24.557 13.6929 24.557 13.6286 24.5249 13.5965C24.4285 13.3072 22.3392 6.49291 18.6749 5.01434C18.5785 4.9822 18.3856 4.91791 18.1927 4.9822C14.7535 5.91434 12.2142 12.7286 11.9249 13.5001C11.8927 13.5965 11.8928 13.6929 11.8928 13.7893C11.8928 13.8215 11.8928 13.8536 11.8606 13.8536C11.8285 14.0465 11.1535 18.5143 11.4106 23.5286C11.4749 25.1036 11.6678 26.8393 11.8606 28.5429L9.16061 30.5036C8.9999 30.6322 8.90347 30.8251 8.90347 31.0179L8.77489 38.8286H4.82132C4.46775 38.8286 4.17847 39.1179 4.17847 39.4715V43.2322C4.17847 43.5858 4.46775 43.8751 4.82132 43.8751H39.9535C40.307 43.8751 40.5963 43.5858 40.5963 43.2322V39.4715C40.5963 39.1179 40.307 38.8286 39.9535 38.8286ZM36.8678 17.6465L34.7142 19.7036L32.7535 17.6786L34.9713 15.6536L36.8678 17.6465ZM33.0106 11.8286L34.7142 10.1893L36.707 12.3108L34.9713 13.8858L33.0106 11.8286ZM36.6106 23.4965L34.9713 25.1358L32.9785 23.1429L34.682 21.5036L36.6106 23.4965ZM37.157 27.3536L35.8713 26.0679L37.157 24.7822V27.3536ZM37.157 33.4286L35.5499 31.7251L37.157 30.1179V33.4286ZM35.9035 36.8679L37.157 35.8393V37.9929L35.9035 36.8679ZM34.6499 30.7929L32.9142 28.9608L34.9392 26.9358L36.7392 28.7358L34.6499 30.7929ZM34.0392 26.0679L32.5928 27.5143V24.6215L34.0392 26.0679ZM32.5928 30.5036L33.7178 31.6929L32.5928 32.8179V30.5036ZM34.6178 32.6572L36.5463 34.6822L34.907 36.0001L32.9785 34.2643L34.6178 32.6572ZM36.0963 38.7643H33.5249L34.8749 37.6715L36.0963 38.7643ZM37.157 22.2429L35.6142 20.6358L37.157 19.1572V22.2429ZM35.9035 14.8179L37.157 13.6929V16.1036L35.9035 14.8179ZM37.157 10.8965L35.6463 9.32148L37.157 7.87505V10.8965ZM34.7785 8.38934L33.4285 6.97505L36.1927 7.03934L34.7785 8.38934ZM33.8463 9.2572L32.5928 10.4465V7.93934L33.8463 9.2572ZM32.5928 13.2429L34.0392 14.7215L32.5928 16.0393V13.2429ZM33.782 20.6036L32.6249 21.7286V19.3822L33.782 20.6036ZM33.9106 36.8036L32.6249 37.8322V35.6465L33.9106 36.8036ZM37.157 2.57148V5.78577L32.5928 5.6572V2.57148H37.157ZM12.6963 23.4643C12.5035 19.5751 12.8892 15.9429 13.0499 14.5929H23.3678C23.5285 16.0393 23.9463 20.0893 23.8177 24.2036C23.6249 29.8608 22.6285 34.9393 22.1463 35.6143C21.7606 35.8393 20.6356 36.0965 18.8999 36.1286V29.8286C18.8999 29.4751 18.6106 29.1858 18.257 29.1858C17.9035 29.1858 17.6142 29.4751 17.6142 29.8286V36.1286C16.007 36.0643 14.9463 35.8393 14.6249 35.6465C14.207 34.8751 13.0178 29.2179 12.6963 23.4643ZM18.932 37.4465C20.2178 37.4143 22.1142 37.2858 22.9499 36.675C23.1428 36.5465 23.3035 36.2572 23.4642 35.8715L26.132 38.8286H18.932V37.4465ZM26.582 31.3715L26.6785 37.5429L23.9142 34.4572C23.9142 34.4572 23.882 34.4572 23.882 34.425C24.1713 33.2036 24.4606 31.6286 24.6535 29.9893L26.582 31.3715ZM18.3535 6.30005C20.7642 7.4572 22.4999 11.7001 23.0785 13.3393H13.3713C14.2392 11.1536 16.2642 7.03934 18.3535 6.30005ZM10.1892 31.3715L12.0856 29.9893C12.182 30.6643 12.2785 31.3072 12.407 31.9501C12.5999 32.9786 12.7606 33.7822 12.9213 34.3929C12.8892 34.4251 12.8892 34.4251 12.857 34.4572L10.0928 37.5429L10.1892 31.3715ZM13.3392 35.8393C13.5642 36.4501 13.7249 36.5786 13.8213 36.6429C14.5606 37.2215 16.457 37.3822 17.6463 37.4143V38.7965H10.6713L13.3392 35.8393ZM39.3106 42.5893H5.46418V40.1143H39.3106V42.5893Z" fill="#EC632A"/>
<path d="M18.2894 22.5321C20.2179 22.5321 21.8251 20.9571 21.8251 18.9964C21.8251 17.0678 20.2501 15.4607 18.2894 15.4607C16.3287 15.4607 14.7537 17.0357 14.7537 18.9964C14.7858 20.925 16.3608 22.5321 18.2894 22.5321ZM18.2894 16.7464C19.5108 16.7464 20.5394 17.7428 20.5394 18.9964C20.5394 20.2178 19.5429 21.2464 18.2894 21.2464C17.0358 21.2464 16.0394 20.25 16.0394 18.9964C16.0715 17.775 17.0679 16.7464 18.2894 16.7464Z" fill="#EC632A"/>
</svg>
