<svg width="45" height="45" viewBox="0 0 45 45" fill="none" xmlns="http://www.w3.org/2000/svg">
<path d="M15.525 31.7089L10.1572 29.3946C9.99647 29.3304 9.80361 29.3304 9.64289 29.3946L4.24289 31.7089C4.01789 31.8054 3.85718 32.0304 3.85718 32.2875V41.1268C3.85718 41.4804 4.14646 41.7697 4.50003 41.7697H15.2679C15.6215 41.7697 15.9107 41.4804 15.9107 41.1268V32.2875C15.9107 32.0625 15.75 31.8054 15.525 31.7089ZM12.3108 38.1375H7.39289V37.0125H12.3108V38.1375ZM7.39289 39.4232H12.3108V40.4518H7.39289V39.4232ZM12.3108 35.7268H7.39289V34.8268H12.3108V35.7268ZM14.625 40.5161H13.5965V34.1839C13.5965 33.8304 13.3072 33.5411 12.9536 33.5411H6.75003C6.39646 33.5411 6.10718 33.8304 6.10718 34.1839V40.5161H5.14289V32.7375L9.90004 30.7125L14.625 32.7375V40.5161Z" fill="#EC632A"/>
<path d="M40.9501 31.7089L35.5822 29.3946C35.4215 29.3304 35.2287 29.3304 35.0679 29.3946L29.6679 31.7089C29.4429 31.8054 29.2822 32.0304 29.2822 32.2875V41.1268C29.2822 41.4804 29.5715 41.7697 29.9251 41.7697H40.6929C41.0465 41.7697 41.3358 41.4804 41.3358 41.1268V32.2875C41.3358 32.0625 41.2072 31.8054 40.9501 31.7089ZM37.7679 38.1375H32.8501V37.0125H37.7679V38.1375ZM32.8179 39.4232H37.7358V40.4518H32.8179V39.4232ZM37.7679 35.7268H32.8501V34.8268H37.7679V35.7268ZM40.0501 40.5161H39.0215V34.1839C39.0215 33.8304 38.7322 33.5411 38.3787 33.5411H32.1751C31.8215 33.5411 31.5322 33.8304 31.5322 34.1839V40.5161H30.5679V32.7375L35.3251 30.7125L40.0501 32.7375V40.5161Z" fill="#EC632A"/>
<path d="M4.50003 15.9589H15.2679C15.6215 15.9589 15.9107 15.6696 15.9107 15.316V6.47672C15.9107 6.21957 15.75 5.99458 15.525 5.89815L10.1572 3.58386C9.99647 3.51957 9.80361 3.51957 9.64289 3.58386L4.24289 5.89815C4.01789 5.99458 3.85718 6.21957 3.85718 6.47672V15.316C3.85718 15.6696 4.14646 15.9589 4.50003 15.9589ZM12.3108 12.3267H7.39289V11.2017H12.3108V12.3267ZM7.39289 13.6124H12.3108V14.641H7.39289V13.6124ZM12.3108 9.91601H7.39289V9.01601H12.3108V9.91601ZM5.14289 6.92672L9.90004 4.90172L14.625 6.92672V14.7053H13.5965V8.37315C13.5965 8.01958 13.3072 7.7303 12.9536 7.7303H6.75003C6.39646 7.7303 6.10718 8.01958 6.10718 8.37315V14.7053H5.14289V6.92672Z" fill="#EC632A"/>
<path d="M40.9501 5.89815L35.5822 3.58386C35.4215 3.51957 35.2287 3.51957 35.0679 3.58386L29.6679 5.89815C29.4429 5.99458 29.2822 6.21957 29.2822 6.47672V15.316C29.2822 15.6696 29.5715 15.9589 29.9251 15.9589H40.6929C41.0465 15.9589 41.3358 15.6696 41.3358 15.316V6.47672C41.3358 6.21957 41.2072 5.99458 40.9501 5.89815ZM37.7679 12.3267H32.8501V11.2017H37.7679V12.3267ZM32.8179 13.6124H37.7358V14.641H32.8179V13.6124ZM37.7679 9.91601H32.8501V9.01601H37.7679V9.91601ZM40.0501 14.6731H39.0215V8.34101C39.0215 7.98744 38.7322 7.69815 38.3787 7.69815H32.1751C31.8215 7.69815 31.5322 7.98744 31.5322 8.34101V14.6731H30.5679V6.89458L35.3251 4.86957L40.0501 6.89458V14.6731Z" fill="#EC632A"/>
<path d="M30.3107 29.0411C30.6642 29.0411 30.9535 28.7518 30.9535 28.3982V26.5661C30.9535 26.3732 30.8571 26.2125 30.7285 26.0839V23.1268C30.7285 22.9661 30.6642 22.8375 30.5678 22.7089L28.3178 20.0411C28.1892 19.8803 28.0285 19.8161 27.8357 19.8161H24.7821V17.8875C24.7821 17.5339 24.4928 17.2446 24.1392 17.2446H15.2035C14.8499 17.2446 14.5607 17.5339 14.5607 17.8875V25.9232H14.4964C14.1428 25.9232 13.8535 26.2125 13.8535 26.5661V28.3982C13.8535 28.7518 14.1428 29.0411 14.4964 29.0411H17.1321C17.5499 29.6518 18.2571 30.0696 19.0607 30.0696C19.8642 30.0696 20.5714 29.6518 20.9892 29.0411H24.8464C25.2642 29.6518 25.9714 30.0696 26.7749 30.0696C27.5785 30.0696 28.2857 29.6518 28.7035 29.0411H30.3107ZM29.6678 27.7553H29.0892V27.7232C29.0892 27.5625 29.0571 27.3696 29.0249 27.2089H29.6357V27.7553H29.6678ZM28.8964 22.7089H26.5178V21.1018H27.5464L28.8964 22.7089ZM24.8464 21.1018H25.2321V23.3518C25.2321 23.7053 25.5214 23.9946 25.8749 23.9946H29.4749V25.6982H28.0285C27.9964 25.6982 27.9964 25.6982 27.9642 25.6982C27.6107 25.5054 27.2249 25.3768 26.7749 25.3768C26.3249 25.3768 25.9392 25.5054 25.5857 25.7304C25.5535 25.7304 25.4892 25.6982 25.4571 25.6982H24.8785V21.1018H24.8464ZM15.8464 18.5303H23.4964V25.8268H20.4107C20.0249 25.5696 19.5749 25.4089 19.0607 25.4089C18.5464 25.4089 18.0964 25.5696 17.7107 25.8589C17.6785 25.8589 17.6142 25.8589 17.5821 25.8589H15.8464V18.5303ZM15.1392 27.7553V27.2089H16.7785C16.7464 27.3696 16.7142 27.5304 16.7142 27.7232V27.7553H15.1392ZM19.0607 28.7839C18.4821 28.7839 18.0321 28.3018 18.0321 27.7553C18.0321 27.2089 18.5142 26.7268 19.0607 26.7268C19.6071 26.7268 20.0892 27.2089 20.0892 27.7553C20.0892 28.3018 19.6392 28.7839 19.0607 28.7839ZM21.3749 27.7553C21.3749 27.5625 21.3428 27.3696 21.3107 27.2089H24.4928C24.4607 27.3696 24.4285 27.5304 24.4285 27.7232V27.7553H21.3749ZM26.7749 28.7839C26.1964 28.7839 25.7464 28.3018 25.7464 27.7553C25.7464 27.2089 26.2285 26.7268 26.7749 26.7268C27.3214 26.7268 27.8035 27.2089 27.8035 27.7553C27.8035 28.3018 27.3535 28.7839 26.7749 28.7839Z" fill="#EC632A"/>
<path d="M22.5963 14.5447C22.9499 14.5447 23.2392 14.2554 23.2392 13.9018V10.784H26.582C26.2606 11.1375 25.9713 11.3947 25.9713 11.3947L26.9035 12.2947C26.9035 12.2947 28.4142 10.7197 28.5427 10.5911L28.5749 10.559C28.607 10.559 28.607 10.5268 28.6392 10.5268C28.8963 10.2697 28.8963 9.88395 28.6392 9.62681L26.9035 7.8911C26.6463 7.63396 26.2606 7.63396 26.0035 7.8911C25.7463 8.14824 25.7463 8.53395 26.0035 8.7911L26.7427 9.53038H22.6285C22.2749 9.53038 21.9856 9.81966 21.9856 10.1732V13.934C21.9535 14.2554 22.2427 14.5447 22.5963 14.5447Z" fill="#EC632A"/>
<path d="M22.9178 31.1304C22.5643 31.1304 22.275 31.4197 22.275 31.7732V34.8911H18.9321C19.2536 34.5375 19.5428 34.2804 19.5428 34.2804L18.6107 33.3804C18.6107 33.3804 17.1 34.9554 16.9714 35.0839L16.9393 35.1161C16.9071 35.1161 16.9071 35.1482 16.875 35.1482C16.6178 35.4054 16.6178 35.7911 16.875 36.0482L18.6107 37.7839C18.7393 37.9125 18.9 37.9768 19.0607 37.9768C19.2214 37.9768 19.3821 37.9125 19.5107 37.7839C19.7678 37.5268 19.7678 37.1411 19.5107 36.8839L18.7714 36.1446H22.8857C23.2393 36.1446 23.5286 35.8554 23.5286 35.5018V31.7732C23.5607 31.4197 23.2714 31.1304 22.9178 31.1304Z" fill="#EC632A"/>
<path d="M9.83568 23.5446H13.5964C13.95 23.5446 14.2392 23.2553 14.2392 22.9017C14.2392 22.5482 13.95 22.2589 13.5964 22.2589H10.4785V18.916C10.8321 19.2374 11.0892 19.5267 11.0892 19.5267L11.9892 18.5946C11.9892 18.5946 10.4142 17.0839 10.2857 16.9553L10.2535 16.9232C10.2535 16.891 10.2214 16.891 10.2214 16.8589C9.96425 16.6017 9.57853 16.6017 9.32139 16.8589L7.58568 18.5946C7.32854 18.8517 7.32854 19.2374 7.58568 19.4946C7.71425 19.6232 7.87496 19.6874 8.03568 19.6874C8.19639 19.6874 8.35711 19.6232 8.48568 19.4946L9.22496 18.7553V22.8696C9.19282 23.2553 9.48211 23.5446 9.83568 23.5446Z" fill="#EC632A"/>
<path d="M35.5178 22.0662H31.7571C31.4035 22.0662 31.1143 22.3554 31.1143 22.709C31.1143 23.0626 31.4035 23.3519 31.7571 23.3519H34.875V26.6947C34.5214 26.3733 34.2643 26.084 34.2643 26.084L33.3643 27.0162C33.3643 27.0162 34.9393 28.5269 35.0678 28.6554L35.1 28.6876L35.1321 28.7197C35.2607 28.8483 35.4214 28.9126 35.5821 28.9126C35.7428 28.9126 35.9035 28.8483 36.0321 28.7197L37.7678 26.984C38.025 26.7269 38.025 26.3412 37.7678 26.084C37.5107 25.8269 37.125 25.8269 36.8678 26.084L36.1285 26.8233V22.709C36.1607 22.3554 35.8714 22.0662 35.5178 22.0662Z" fill="#EC632A"/>
</svg>
