<svg width="45" height="45" viewBox="0 0 45 45" fill="none" xmlns="http://www.w3.org/2000/svg">
<path d="M12.9858 26.4856L13.8215 26.4213L12.7929 27.7071C12.5679 27.9963 12.6322 28.382 12.8894 28.607C13.0179 28.7035 13.1465 28.7356 13.2751 28.7356C13.4679 28.7356 13.6608 28.6392 13.7894 28.4785L15.7179 26.0678C15.8787 25.8749 15.9108 25.5856 15.7822 25.3606C15.6536 25.1356 15.4286 25.0071 15.1715 25.0071L14.5286 25.0392L15.7501 23.7213C16.0072 23.4642 15.9751 23.0463 15.7179 22.8213C15.4608 22.5642 15.0429 22.5963 14.8179 22.8535L12.4715 25.3285C12.2787 25.5213 12.2465 25.8106 12.3429 26.0356C12.4394 26.2606 12.7287 26.4856 12.9858 26.4856Z" fill="#EC632A"/>
<path d="M43.7144 38.9894H42.7501L42.3001 38.7965L41.7537 34.1358L42.5894 33.7501C42.8144 33.6537 42.9751 33.4287 42.943 33.1715C42.9108 32.9144 42.7823 32.6894 42.5573 32.593L41.5287 32.1108L41.0787 28.0287L41.818 27.7072C42.043 27.6108 42.1715 27.3858 42.2037 27.1287C42.2037 26.8715 42.0751 26.6465 41.8822 26.5501L40.8858 26.0037L40.4037 21.6644L41.2715 21.2144C41.4644 21.118 41.593 20.893 41.6251 20.668C41.6251 20.443 41.5287 20.218 41.3037 20.0894L40.1465 19.3823L39.6644 15.1072L40.1787 14.7858C40.3394 14.6894 40.468 14.4965 40.468 14.3037C40.468 14.1108 40.4037 13.918 40.243 13.7894L39.4073 13.0501L38.893 8.51796H40.6608V10.993C40.6608 11.3465 40.9501 11.6358 41.3037 11.6358C41.6572 11.6358 41.9465 11.3465 41.9465 10.993V7.8751C41.9465 7.52153 41.6572 7.23225 41.3037 7.23225H38.7322L38.5072 5.40011C38.4751 5.07868 38.1858 4.82153 37.8644 4.82153H32.593C32.2715 4.82153 31.9823 5.07868 31.9501 5.40011L31.7251 7.26439H29.3787C29.0251 7.26439 28.7358 7.55368 28.7358 7.90725V11.0251C28.7358 11.3787 29.0251 11.668 29.3787 11.668C29.7323 11.668 30.0215 11.3787 30.0215 11.0251V8.55011H31.5644L31.0501 12.9537L29.9573 13.8215C29.7965 13.9501 29.7001 14.143 29.7001 14.368C29.7001 14.593 29.8287 14.7537 30.0215 14.8823L30.7608 15.3323L30.6965 15.8787H28.543C25.393 15.8787 22.8215 18.4501 22.8215 21.6001V24.4608H22.5322V20.9894C22.5322 20.6358 22.243 20.3465 21.8894 20.3465H18.8358V6.20368C18.8358 5.85011 18.5465 5.56082 18.193 5.56082H14.0144C13.6608 5.56082 13.3715 5.85011 13.3715 6.20368V20.3465H6.49297C6.13939 20.3465 5.85011 20.6358 5.85011 20.9894V29.668H2.31439C1.96082 29.668 1.67154 29.9573 1.67154 30.3108V39.0537H0.96439C0.610819 39.0537 0.321533 39.343 0.321533 39.6965C0.321533 40.0501 0.610819 40.3394 0.96439 40.3394H21.7608C21.8573 40.4358 22.018 40.468 22.1465 40.468H26.3251C26.4858 40.468 26.6144 40.4037 26.7108 40.3394H28.5751L42.943 40.468C43.1037 40.468 43.2323 40.4037 43.3608 40.3394H43.7465C44.1001 40.3394 44.3894 40.0501 44.3894 39.6965C44.3894 39.343 44.068 38.9894 43.7144 38.9894ZM14.6572 6.78225H17.5501V19.993H14.6572V6.78225ZM32.2715 13.5644L35.293 11.1858L38.1215 13.693L38.218 14.4965L35.1965 16.4573L32.1751 14.6251L32.2715 13.5644ZM34.168 8.48582H36.6108L35.3251 9.48225L34.168 8.48582ZM35.1965 17.9358L38.8608 20.1537L38.9573 20.9251L35.1644 22.918L31.4358 20.893L31.5001 20.3465L35.1965 17.9358ZM39.6644 27.2251L35.1644 29.2501L30.6644 27.2251L30.7287 26.6465L35.1322 24.3644L39.6322 26.8072L39.6644 27.2251ZM40.3715 33.3644L35.3251 35.743L29.9573 33.3965L29.9894 33.0108L35.1644 30.6644L40.3073 32.9787L40.3715 33.3644ZM31.468 38.9894L35.3572 37.1572L39.568 38.9894H31.468ZM33.7823 23.6251L30.9215 25.1037L31.243 22.243L33.7823 23.6251ZM33.6215 29.9572L30.1823 31.5001L30.5358 28.5751L33.6215 29.9572ZM33.7823 36.4501L29.3787 38.5394L29.8287 34.7144L33.7823 36.4501ZM40.918 38.1858L36.868 36.418L40.5001 34.7144L40.918 38.1858ZM40.1465 31.468L36.7394 29.9572L39.8251 28.5751L40.1465 31.468ZM39.4394 25.2644L36.5144 23.6572L39.118 22.3072L39.4394 25.2644ZM38.668 18.5465L36.3858 17.1644L38.3465 15.8787L38.668 18.5465ZM36.3215 10.3501L37.6394 9.32153L37.9287 11.7644L36.3215 10.3501ZM33.1394 6.07511H37.2537L37.3822 7.2001H33.0108L33.1394 6.07511ZM32.7858 8.96796L34.2965 10.2858L32.4644 11.7322L32.7858 8.96796ZM33.9751 17.1965L31.6608 18.6751L31.9822 15.9751L33.9751 17.1965ZM24.1072 21.5358C24.1072 19.093 26.1001 17.1001 28.543 17.1001H30.568L30.2787 19.6072L29.3787 20.1858C29.1858 20.3144 29.0894 20.5394 29.0894 20.7644C29.0894 20.9894 29.218 21.1823 29.4108 21.3108L30.0215 21.6323L29.5394 25.8751L28.3501 26.4858C28.1251 26.6144 27.9965 26.8394 27.9965 27.0644C27.9965 27.3215 28.1572 27.5465 28.3822 27.643L29.2823 28.0287L28.8001 32.143L27.6751 32.6572C27.4501 32.7537 27.2894 32.9787 27.2894 33.2358C27.2894 33.493 27.4501 33.718 27.6751 33.8144L28.543 34.2001L27.9965 38.9894H26.9358V25.0715C26.9358 24.718 26.6465 24.4287 26.293 24.4287H24.1072V21.5358ZM25.6501 25.6822V38.9572H22.7573V25.6822H25.6501ZM7.13582 21.568H21.2465V38.893H7.13582V30.2144V21.568ZM2.92511 30.8894H5.81796V38.9251H2.92511V30.8894Z" fill="#EC632A"/>
</svg>
