<svg width="45" height="45" viewBox="0 0 45 45" fill="none" xmlns="http://www.w3.org/2000/svg">
<path d="M29.25 22.4036H16.1036C15.75 22.4036 15.4607 22.6928 15.4607 23.0464C15.4607 23.4 15.75 23.6893 16.1036 23.6893H29.25C29.6036 23.6893 29.8928 23.4 29.8928 23.0464C29.8928 22.6928 29.6036 22.4036 29.25 22.4036Z" fill="#EC632A"/>
<path d="M27.9322 25.4893H17.5501C17.1965 25.4893 16.9072 25.7785 16.9072 26.1321C16.9072 26.4857 17.1965 26.775 17.5501 26.775H27.9322C28.2858 26.775 28.5751 26.4857 28.5751 26.1321C28.5751 25.7785 28.2858 25.4893 27.9322 25.4893Z" fill="#EC632A"/>
<path d="M41.2715 15.0749C41.2715 14.1428 40.5322 13.4035 39.6 13.4035H35.2286L33.7179 10.3821C33.0108 8.93564 31.5643 8.03564 29.9572 8.03564H15.1072C13.4679 8.03564 11.9572 8.99992 11.2822 10.4785L9.77147 13.7892H5.52861C4.59647 13.7892 3.85718 14.5285 3.85718 15.4606C3.85718 16.3928 4.59647 17.1321 5.52861 17.1321H8.26075L5.85004 21.3106C5.56075 21.7928 5.40003 22.3714 5.40003 22.9499V32.5285V34.9714C5.40003 36.1606 6.36432 37.1249 7.55361 37.1249H10.1572C11.3465 37.1249 12.3107 36.1606 12.3107 34.9714V33.1714H33.1072V34.9714C33.1072 36.1606 34.0715 37.1249 35.2608 37.1249H37.8643C39.0536 37.1249 40.0179 36.1606 40.0179 34.9714V32.5285V22.8535C40.0179 22.3392 39.8893 21.8571 39.6643 21.3749L37.3179 16.6821H39.6C40.5 16.7142 41.2715 15.9749 41.2715 15.0749ZM39.6 14.6892C39.825 14.6892 39.9858 14.8499 39.9858 15.0749C39.9858 15.2999 39.825 15.4606 39.6 15.4606H36.3215L36.0322 14.6892H39.6ZM12.4393 11.0249C12.9215 9.99636 13.95 9.32136 15.1072 9.32136H29.9572C31.0822 9.32136 32.0786 9.93207 32.5929 10.9285L34.875 15.4606H10.4143L12.4393 11.0249ZM5.11076 15.4606C5.11076 15.2356 5.27146 15.0749 5.49646 15.0749H9.09646L8.77503 15.8464H5.49646C5.3036 15.8464 5.11076 15.6856 5.11076 15.4606ZM10.9929 34.9714C10.9929 35.4535 10.6072 35.8392 10.125 35.8392H7.52147C7.03933 35.8392 6.65361 35.4535 6.65361 34.9714V33.1714H10.9929V34.9714ZM11.6358 31.9178H10.9607L12.8893 30.3106C13.2429 30.0214 13.725 29.8285 14.2072 29.8285H30.8893C31.4357 29.8285 31.95 30.0535 32.3357 30.4392L33.8143 31.9178H33.7179H11.6358ZM38.7 34.9714C38.7 35.4535 38.3143 35.8392 37.8322 35.8392H35.2286C34.7465 35.8392 34.3608 35.4535 34.3608 34.9714V33.1714H38.7V34.9714ZM38.7 22.8856V31.9178H35.6143L33.2358 29.5392C32.5929 28.8963 31.7572 28.5749 30.8893 28.5749H14.2072C13.4358 28.5749 12.6643 28.8321 12.0857 29.3464L8.9679 31.9499H6.65361V23.0142C6.65361 22.6606 6.75003 22.3071 6.91075 22.0178L9.8679 16.8749H35.9036L38.475 22.0178C38.6358 22.2749 38.7 22.5642 38.7 22.8856Z" fill="#EC632A"/>
<path d="M14.1108 22.2107L10.4465 19.9928C10.1894 19.8321 9.93224 19.7678 9.64295 19.7678C8.77509 19.7678 8.1001 20.475 8.1001 21.3107V22.7892C8.1001 23.5607 8.67867 24.2357 9.4501 24.3321L13.2108 24.8464C13.2751 24.8464 13.3394 24.8464 13.4037 24.8464C14.2072 24.8464 14.8501 24.2035 14.8501 23.4C14.818 22.9178 14.5608 22.4678 14.1108 22.2107ZM13.3715 23.5928L9.61082 23.0785C9.48224 23.0464 9.38581 22.95 9.38581 22.8214V21.3428C9.38581 21.15 9.54652 21.0857 9.64295 21.0857C9.67509 21.0857 9.73939 21.0857 9.77153 21.1178L13.4358 23.3357C13.4679 23.3678 13.5001 23.4321 13.5001 23.4643C13.5322 23.5285 13.4358 23.5928 13.3715 23.5928Z" fill="#EC632A"/>
<path d="M31.4679 22.2106C31.05 22.4677 30.7607 22.9499 30.7607 23.4642C30.7607 24.2678 31.4036 24.9106 32.2072 24.9106C32.2715 24.9106 32.3357 24.9106 32.4 24.9106L36.1607 24.3963C36.9322 24.2999 37.5107 23.6249 37.5107 22.8535V21.3749C37.5107 20.507 36.8036 19.832 35.9679 19.832C35.6786 19.832 35.4215 19.8963 35.1643 20.057L31.4679 22.2106ZM35.9679 21.0535C36.0643 21.0535 36.225 21.1499 36.225 21.3106V22.7892C36.225 22.9178 36.1286 23.0463 36 23.0463L32.2393 23.5606H32.2072C32.1429 23.5606 32.0465 23.4963 32.0465 23.3999C32.0465 23.3356 32.0786 23.3035 32.1107 23.2713L35.775 21.0535C35.8714 21.0535 35.9036 21.0535 35.9679 21.0535Z" fill="#EC632A"/>
</svg>
