<svg width="45" height="45" viewBox="0 0 45 45" fill="none" xmlns="http://www.w3.org/2000/svg">
<path d="M22.243 17.9036H34.5858C34.9394 17.9036 35.2287 17.6143 35.2287 17.2608C35.2287 16.9072 34.9394 16.6179 34.5858 16.6179H22.243C21.8894 16.6179 21.6001 16.9072 21.6001 17.2608C21.6001 17.6143 21.8894 17.9036 22.243 17.9036Z" fill="#EC632A"/>
<path d="M22.243 22.4036H34.5858C34.9394 22.4036 35.2287 22.1143 35.2287 21.7608C35.2287 21.4072 34.9394 21.1179 34.5858 21.1179H22.243C21.8894 21.1179 21.6001 21.4072 21.6001 21.7608C21.6001 22.1143 21.8894 22.4036 22.243 22.4036Z" fill="#EC632A"/>
<path d="M41.7857 38.7322H39.8571V5.46439C39.8571 5.27153 39.7607 5.07868 39.6 4.9501C39.4393 4.82153 39.2143 4.78939 39.0214 4.85368L17.2607 12.2144C17.0035 12.3108 16.8107 12.5358 16.8107 12.8251V22.7251L9.41783 22.6608L8.51782 18.4822C8.45354 18.193 8.19639 17.968 7.87497 17.968H3.53568C3.18211 17.968 2.89282 18.2572 2.89282 18.6108C2.89282 18.9644 3.18211 19.2537 3.53568 19.2537H7.36069L8.26068 23.4322L10.0928 32.4001C10.125 32.5287 10.1571 32.6251 10.2535 32.6894L10.7035 34.7465C10.7678 35.0358 11.025 35.2608 11.3143 35.2608L22.725 35.293C23.0785 35.293 23.3678 35.0037 23.3678 34.6501C23.3678 34.2965 23.0785 34.0072 22.725 34.0072L11.8285 33.9751L11.6035 32.8822H23.3035C23.5607 32.8822 23.7857 32.7537 23.8821 32.5287L24.4607 31.3715C24.525 31.3715 24.5893 31.4037 24.6214 31.4037H34.5857C34.9393 31.4037 35.2285 31.1144 35.2285 30.7608C35.2285 30.4072 34.9393 30.118 34.5857 30.118H25.0714L26.6464 26.9037H34.5857C34.9393 26.9037 35.2285 26.6144 35.2285 26.2608C35.2285 25.9072 34.9393 25.618 34.5857 25.618H27.2571L28.1571 23.7537C28.2535 23.5608 28.2535 23.3358 28.125 23.143C27.9964 22.9501 27.8035 22.8537 27.5785 22.8537L18.0964 22.7572V13.2751L38.5393 6.36439V38.7322H23.2071C23.5285 38.443 23.7214 38.0251 23.7214 37.543C23.7214 36.643 22.9821 35.8715 22.05 35.8715C21.1178 35.8715 20.3785 36.6108 20.3785 37.543C20.3785 38.0251 20.5714 38.443 20.8928 38.7322H13.7893C14.1107 38.443 14.3035 38.0251 14.3035 37.543C14.3035 36.643 13.5643 35.8715 12.6321 35.8715C11.7 35.8715 10.9607 36.6108 10.9607 37.543C10.9607 38.0251 11.1535 38.443 11.475 38.7322H8.80712C8.45354 38.7322 8.16426 39.0215 8.16426 39.3751C8.16426 39.7287 8.45354 40.018 8.80712 40.018H41.7535C42.1071 40.018 42.3964 39.7287 42.3964 39.3751C42.3964 39.0215 42.1393 38.7322 41.7857 38.7322ZM22.9178 31.6287H11.3464L9.70711 23.9465L26.5821 24.1072L22.9178 31.6287ZM22.0821 37.1894C22.275 37.1894 22.4678 37.3501 22.4678 37.5751C22.4678 37.8001 22.3071 37.9608 22.0821 37.9608C21.8571 37.9608 21.6964 37.8001 21.6964 37.5751C21.6964 37.3501 21.8893 37.1894 22.0821 37.1894ZM12.6643 37.1894C12.8571 37.1894 13.05 37.3501 13.05 37.5751C13.05 37.8001 12.8893 37.9608 12.6643 37.9608C12.4393 37.9608 12.2785 37.8001 12.2785 37.5751C12.2785 37.3501 12.4714 37.1894 12.6643 37.1894Z" fill="#EC632A"/>
</svg>
