<svg width="45" height="45" viewBox="0 0 45 45" fill="none" xmlns="http://www.w3.org/2000/svg">
<path d="M35.7106 32.1244H34.7464V27.9779C34.7464 27.6244 34.4571 27.3351 34.1035 27.3351H28.9606C28.6071 27.3351 28.3178 27.6244 28.3178 27.9779V32.1244H25.8749V27.9779C25.8749 27.6244 25.5856 27.3351 25.2321 27.3351H20.0892C19.7356 27.3351 19.4464 27.6244 19.4464 27.9779V32.1244H16.5214V27.9779C16.5214 27.6244 16.2321 27.3351 15.8785 27.3351H10.7356C10.3821 27.3351 10.0928 27.6244 10.0928 27.9779V32.1244H8.26065C5.65707 32.1244 3.53564 34.2458 3.53564 36.8494C3.53564 39.4529 5.65707 41.5744 8.26065 41.5744H35.6785C38.2821 41.5744 40.4035 39.4529 40.4035 36.8494C40.4356 34.2458 38.3142 32.1244 35.7106 32.1244ZM29.6035 28.6529H33.4606V32.1565H29.6035V28.6529ZM20.7321 28.6529H24.5892V32.1565H20.7321V28.6529ZM11.3785 28.6529H15.2356V32.1565H11.3785V28.6529ZM35.7106 40.2887H8.29279C6.39636 40.2887 4.8535 38.7458 4.8535 36.8494C4.8535 34.9529 6.39636 33.4101 8.29279 33.4101H10.7678H15.9106H20.1214H25.2642H28.9928H34.1356H35.7428C37.6392 33.4101 39.1821 34.9529 39.1821 36.8494C39.1821 38.7458 37.6071 40.2887 35.7106 40.2887Z" fill="#EC632A"/>
<path d="M10.1573 35.0815C9.12868 35.0815 8.29297 35.9173 8.29297 36.9458C8.29297 37.9744 9.12868 38.8101 10.1573 38.8101C11.1858 38.8101 12.0215 37.9744 12.0215 36.9458C12.0215 35.9173 11.1858 35.0815 10.1573 35.0815ZM10.1573 37.5565C9.83583 37.5565 9.57868 37.2994 9.57868 36.978C9.57868 36.6565 9.83583 36.3994 10.1573 36.3994C10.4787 36.3994 10.7358 36.6565 10.7358 36.978C10.7358 37.2994 10.4787 37.5565 10.1573 37.5565Z" fill="#EC632A"/>
<path d="M16.4893 35.0815C15.4607 35.0815 14.625 35.9173 14.625 36.9458C14.625 37.9744 15.4607 38.8101 16.4893 38.8101C17.5179 38.8101 18.3536 37.9744 18.3536 36.9458C18.3536 35.9173 17.5179 35.0815 16.4893 35.0815ZM16.4893 37.5565C16.1679 37.5565 15.9107 37.2994 15.9107 36.978C15.9107 36.6565 16.1679 36.3994 16.4893 36.3994C16.8107 36.3994 17.0679 36.6565 17.0679 36.978C17.0679 37.2994 16.8107 37.5565 16.4893 37.5565Z" fill="#EC632A"/>
<path d="M22.8213 35.0815C21.7927 35.0815 20.957 35.9173 20.957 36.9458C20.957 37.9744 21.7927 38.8101 22.8213 38.8101C23.8499 38.8101 24.6856 37.9744 24.6856 36.9458C24.6856 35.9173 23.8499 35.0815 22.8213 35.0815ZM22.8213 37.5565C22.4999 37.5565 22.2427 37.2994 22.2427 36.978C22.2427 36.6565 22.4999 36.3994 22.8213 36.3994C23.1427 36.3994 23.3999 36.6565 23.3999 36.978C23.3999 37.2994 23.1427 37.5565 22.8213 37.5565Z" fill="#EC632A"/>
<path d="M29.1214 35.0815C28.0928 35.0815 27.2571 35.9173 27.2571 36.9458C27.2571 37.9744 28.0928 38.8101 29.1214 38.8101C30.1499 38.8101 30.9857 37.9744 30.9857 36.9458C30.9857 35.9173 30.1821 35.0815 29.1214 35.0815ZM29.1214 37.5565C28.7999 37.5565 28.5428 37.2994 28.5428 36.978C28.5428 36.6565 28.7999 36.3994 29.1214 36.3994C29.4428 36.3994 29.6999 36.6565 29.6999 36.978C29.6999 37.2994 29.4749 37.5565 29.1214 37.5565Z" fill="#EC632A"/>
<path d="M35.4536 35.0815C34.4251 35.0815 33.5894 35.9173 33.5894 36.9458C33.5894 37.9744 34.4251 38.8101 35.4536 38.8101C36.4822 38.8101 37.3179 37.9744 37.3179 36.9458C37.3179 35.9173 36.5144 35.0815 35.4536 35.0815ZM35.4536 37.5565C35.1322 37.5565 34.8751 37.2994 34.8751 36.978C34.8751 36.6565 35.1322 36.3994 35.4536 36.3994C35.7751 36.3994 36.0322 36.6565 36.0322 36.978C36.0322 37.2994 35.7751 37.5565 35.4536 37.5565Z" fill="#EC632A"/>
<path d="M6.01075 12.3888H9.06432V15.8281H9.03218C8.35718 15.8281 7.77861 16.3102 7.68218 16.9852L7.39289 18.9781V19.0102L6.49289 20.5852C6.39646 20.7781 6.36432 21.0031 6.49289 21.1959L7.84289 23.7352C8.00361 24.0566 8.38932 24.1531 8.71075 23.9923C9.03218 23.8316 9.12861 23.4459 8.96789 23.1245L7.77861 20.9066L8.48575 19.7173H10.6715L11.3465 20.9388L10.2857 23.2531C10.125 23.5745 10.2857 23.9602 10.6072 24.1209C10.7036 24.1531 10.8 24.1852 10.8643 24.1852C11.1215 24.1852 11.3465 24.0566 11.4429 23.7995L12.6322 21.1959C12.7286 21.0031 12.6965 20.8102 12.6 20.6173L11.7 18.9781V18.9459L11.475 17.0495C11.4108 16.4388 10.9608 15.9888 10.3822 15.8602V12.4209H14.8822C15.2358 12.4209 15.525 12.1316 15.525 11.7781C15.525 11.4245 15.2358 11.1352 14.8822 11.1352H6.01075C5.52861 11.1352 5.14289 10.7495 5.14289 10.2673C5.14289 9.78519 5.52861 9.39948 6.01075 9.39948H14.85C15.2036 9.39948 15.4929 9.1102 15.4929 8.75663C15.4929 8.40306 15.2036 8.11377 14.85 8.11377H6.01075C4.82146 8.11377 3.85718 9.07805 3.85718 10.2673C3.85718 11.4566 4.82146 12.3888 6.01075 12.3888ZM8.74289 18.4316L8.93575 17.1781C8.93575 17.1459 8.96789 17.1138 9.00003 17.1138H10.0929C10.125 17.1138 10.1572 17.1459 10.1572 17.1781L10.3179 18.4316H8.74289Z" fill="#EC632A"/>
<path d="M39.343 8.08154H30.5037C30.1501 8.08154 29.8608 8.37083 29.8608 8.7244C29.8608 9.07797 30.1501 9.36726 30.5037 9.36726H39.343C39.8251 9.36726 40.2108 9.75298 40.2108 10.2351C40.2108 10.7173 39.8251 11.103 39.343 11.103H30.5037C30.1501 11.103 29.8608 11.3923 29.8608 11.7458C29.8608 12.0994 30.1501 12.3887 30.5037 12.3887H35.1323V15.7637C34.5537 15.828 34.0394 16.3101 33.9751 16.8887L33.6858 18.8815V18.9137L32.7858 20.4887C32.6894 20.6815 32.6573 20.9065 32.7858 21.0994L34.1358 23.6387C34.2966 23.9601 34.6823 24.0565 35.0037 23.8958C35.3251 23.7351 35.4216 23.3494 35.2608 23.028L34.0716 20.8101L34.7787 19.6208H36.9644L37.6394 20.8423L36.5787 23.1565C36.418 23.478 36.5787 23.8637 36.9001 24.0244C36.9966 24.0565 37.093 24.0887 37.1573 24.0887C37.4144 24.0887 37.6394 23.9601 37.7358 23.703L38.9251 21.0994C39.0216 20.9065 38.9894 20.7137 38.893 20.5208L37.993 18.8815V18.8494L37.768 16.953C37.7037 16.278 37.1251 15.7637 36.4501 15.7637V12.3887H39.3751C40.5644 12.3887 41.5287 11.4244 41.5287 10.2351C41.5287 9.04583 40.5323 8.08154 39.343 8.08154ZM36.4501 17.1137L36.6108 18.3673H35.068L35.2608 17.1137C35.2608 17.0815 35.293 17.0494 35.3251 17.0494H36.418C36.418 17.0494 36.4501 17.0815 36.4501 17.1137Z" fill="#EC632A"/>
<path d="M22.6608 12.7422C24.0108 12.7422 25.1358 11.6494 25.1358 10.2672C25.1358 8.88509 24.0429 7.79224 22.6608 7.79224C21.2786 7.79224 20.1858 8.88509 20.1858 10.2672C20.1858 11.6494 21.2786 12.7422 22.6608 12.7422ZM22.6608 9.1101C23.3036 9.1101 23.8501 9.62438 23.8501 10.2994C23.8501 10.9422 23.3358 11.4887 22.6608 11.4887C22.0179 11.4887 21.4715 10.9744 21.4715 10.2994C21.4715 9.62438 21.9858 9.1101 22.6608 9.1101Z" fill="#EC632A"/>
<path d="M17.1322 12.5493C16.9393 12.8707 16.7786 13.1921 16.9715 13.5457C17.5822 14.6386 18.4179 15.2493 19.2215 15.7314C19.35 15.7957 19.4786 15.86 19.6393 15.86C19.8643 15.86 20.0893 15.7636 20.2822 15.6671C20.3465 15.9886 20.475 16.3421 20.8607 16.4707C21.2143 16.5671 21.6 16.6314 21.9857 16.6636V17.9493C21.3429 17.9814 20.8286 18.4636 20.7322 19.1064L20.4429 21.0993V21.1314L19.5429 22.7064C19.4465 22.8993 19.4143 23.1243 19.5429 23.3171L20.8929 25.8564C21.0536 26.1779 21.4393 26.2743 21.7607 26.1136C22.0822 25.9529 22.1786 25.5671 22.0179 25.2457L20.8286 23.0279L21.5357 21.8386H23.7215L24.3965 23.06L23.3357 25.3743C23.175 25.6957 23.3357 26.0814 23.6572 26.2421C23.7536 26.2743 23.85 26.3064 23.9143 26.3064C24.1715 26.3064 24.3965 26.1779 24.4929 25.9207L25.6822 23.3171C25.7786 23.1243 25.7465 22.9314 25.65 22.7386L24.75 21.0993V21.0671L24.525 19.1707C24.4607 18.5279 23.9143 18.0457 23.3036 17.9814V16.6957C23.6572 16.6636 24.0107 16.5993 24.3322 16.5029C24.7822 16.3743 24.9107 15.9564 24.975 15.5386C25.2 15.6993 25.4572 15.8279 25.7465 15.8279C25.9072 15.8279 26.0679 15.7957 26.1965 15.6993C26.9357 15.2172 27.5786 14.6064 28.0929 13.8671C28.4143 13.385 28.1572 12.8707 27.9965 12.5171V12.485C28.3822 12.3886 28.9286 12.26 29.0893 11.7136C29.2179 11.1993 29.2822 10.6529 29.2822 10.1386C29.2822 9.75286 29.25 9.39929 29.1857 9.01357C29.0893 8.53143 28.6393 8.33858 28.2536 8.14572C28.2536 8.14572 28.2215 8.14572 28.2215 8.11358C28.3822 7.85644 28.7036 7.34215 28.4143 6.82786C27.8679 5.86358 27.0643 5.06001 26.1322 4.48143C26.0036 4.41715 25.8429 4.35286 25.6822 4.35286C25.425 4.35286 25.1679 4.48143 24.975 4.61C24.8786 4.25643 24.7179 3.80643 24.2357 3.71C23.1429 3.45286 21.9857 3.48501 20.925 3.77429C20.5072 3.90286 20.3786 4.22429 20.3143 4.57786C20.1215 4.44929 19.9286 4.38501 19.7036 4.38501C19.575 4.38501 19.4143 4.41715 19.3179 4.48143C18.3536 5.06001 17.55 5.89572 16.9715 6.89215C16.7465 7.27786 16.9393 7.59929 17.1322 7.92072C16.8107 7.985 16.425 8.14572 16.3286 8.56358C16.1679 9.14215 16.1357 9.56 16.1357 10.1064C16.1357 10.7171 16.2322 11.3279 16.3929 11.9064C16.425 12.3243 16.7786 12.4529 17.1322 12.5493ZM21.825 20.5207L22.0179 19.2671C22.0179 19.235 22.05 19.2029 22.0822 19.2029H22.5C22.5643 19.2029 22.5965 19.235 22.6607 19.235C22.725 19.235 22.7572 19.235 22.8215 19.2029H23.2072C23.2393 19.2029 23.2715 19.235 23.2715 19.2671L23.4322 20.5207H21.825ZM17.4536 9.14214C17.4857 9.14214 17.55 9.14215 17.5822 9.11001C17.9679 9.04572 18.45 8.98143 18.6429 8.53143C18.8357 8.08143 18.5465 7.69572 18.2572 7.34215C18.225 7.31 18.1929 7.27786 18.1607 7.21358C18.5465 6.60286 19.0286 6.08858 19.6393 5.70286C19.6715 5.73501 19.7036 5.73501 19.7036 5.76715C19.9607 5.96001 20.25 6.15286 20.5715 6.15286C20.6679 6.15286 20.7965 6.12072 20.8929 6.08858C21.3429 5.89572 21.4072 5.38143 21.4393 4.99572C21.4393 4.96357 21.4393 4.93144 21.4393 4.89929C22.1465 4.73858 22.8857 4.73858 23.5929 4.86715C23.5929 4.89929 23.625 4.96357 23.625 4.99572C23.7215 5.31715 23.85 5.76715 24.2679 5.96C24.3643 5.99215 24.4929 6.02429 24.5893 6.02429C24.9107 6.02429 25.1679 5.86358 25.3929 5.735C25.425 5.70286 25.4572 5.70286 25.4893 5.67072C26.1 6.08858 26.6465 6.635 27.0322 7.27786C27 7.31 27 7.34215 26.9679 7.37429C26.8072 7.63143 26.55 8.04929 26.6786 8.53143C26.8072 8.94929 27.1929 9.11001 27.5465 9.27072C27.6107 9.30287 27.675 9.335 27.7393 9.36715C27.7715 9.59215 27.7715 9.81715 27.7715 10.0743C27.7715 10.4279 27.7393 10.7814 27.675 11.135C27.6107 11.135 27.5465 11.1671 27.4822 11.1671C27.0965 11.2636 26.6465 11.36 26.4536 11.81C26.2607 12.26 26.4857 12.71 26.6465 13.0314C26.6786 13.0957 26.7107 13.16 26.7429 13.2243C26.3893 13.6743 26.0036 14.0922 25.5215 14.4136C25.4572 14.3814 25.425 14.3493 25.3607 14.3171C25.1036 14.1243 24.7822 13.8993 24.4286 13.8993C24.3322 13.8993 24.2036 13.9314 24.1072 13.9636C23.625 14.1564 23.5929 14.6707 23.5286 15.1207C23.5286 15.1529 23.5286 15.2171 23.5286 15.2493C22.8215 15.3779 22.1143 15.3779 21.4072 15.2493C21.4072 15.2171 21.4072 15.2171 21.4072 15.185C21.375 14.7993 21.3429 14.285 20.8607 14.0922C20.7643 14.06 20.6679 14.0279 20.5393 14.0279C20.2179 14.0279 19.9286 14.2207 19.6715 14.3814C19.6393 14.4136 19.575 14.4457 19.5429 14.4779C18.9643 14.0921 18.5143 13.7386 18.1286 13.16C18.1607 13.1279 18.1929 13.0636 18.225 13.0314C18.5143 12.6457 18.7715 12.2921 18.5786 11.8743C18.3857 11.4243 17.9036 11.36 17.4857 11.2957C17.4536 11.2957 17.3893 11.2957 17.3572 11.2636C17.2607 10.8779 17.2286 10.4922 17.2286 10.0743C17.3572 9.75287 17.3893 9.49572 17.4536 9.14214Z" fill="#EC632A"/>
</svg>
