<svg width="45" height="45" viewBox="0 0 45 45" fill="none" xmlns="http://www.w3.org/2000/svg">
<path d="M39.0536 37.4143H38.0894V18.1608C38.0894 17.8072 37.8001 17.5179 37.4465 17.5179H28.4786V7.39289C28.4786 6.97504 28.2536 6.55718 27.9001 6.33218C27.6751 6.17146 27.4179 6.10718 27.1929 6.10718C27.0322 6.10718 26.8715 6.13932 26.7108 6.20361L8.00364 13.7572C7.5215 13.95 7.20007 14.4322 7.20007 14.9465V37.3822C7.20007 37.4143 7.20007 37.4143 7.20007 37.4465H6.10721C5.75364 37.4465 5.46436 37.7357 5.46436 38.0893C5.46436 38.4429 5.75364 38.7322 6.10721 38.7322H39.0536C39.4072 38.7322 39.6965 38.4429 39.6965 38.0893C39.6965 37.7357 39.4072 37.4143 39.0536 37.4143ZM36.7715 18.8357V37.35H28.4465V18.8357H36.7715ZM8.48578 14.9465L27.1929 7.42504V37.3822H8.48578V14.9465Z" fill="#EC632A"/>
<path d="M22.5322 18.5464H12.6643C12.3108 18.5464 12.0215 18.8357 12.0215 19.1892C12.0215 19.5428 12.3108 19.8321 12.6643 19.8321H22.5322C22.8858 19.8321 23.1751 19.5428 23.1751 19.1892C23.1751 18.8357 22.8858 18.5464 22.5322 18.5464Z" fill="#EC632A"/>
<path d="M22.5322 23.0464H12.6643C12.3108 23.0464 12.0215 23.3357 12.0215 23.6892C12.0215 24.0428 12.3108 24.3321 12.6643 24.3321H22.5322C22.8858 24.3321 23.1751 24.0428 23.1751 23.6892C23.1751 23.3357 22.8858 23.0464 22.5322 23.0464Z" fill="#EC632A"/>
<path d="M22.5322 27.5464H12.6643C12.3108 27.5464 12.0215 27.8357 12.0215 28.1892C12.0215 28.5428 12.3108 28.8321 12.6643 28.8321H22.5322C22.8858 28.8321 23.1751 28.5428 23.1751 28.1892C23.1751 27.8357 22.8858 27.5464 22.5322 27.5464Z" fill="#EC632A"/>
<path d="M22.5322 32.0464H12.6643C12.3108 32.0464 12.0215 32.3357 12.0215 32.6892C12.0215 33.0428 12.3108 33.3321 12.6643 33.3321H22.5322C22.8858 33.3321 23.1751 33.0428 23.1751 32.6892C23.1751 32.3357 22.8858 32.0464 22.5322 32.0464Z" fill="#EC632A"/>
</svg>
