<svg width="45" height="45" viewBox="0 0 45 45" fill="none" xmlns="http://www.w3.org/2000/svg">
<path d="M38.3786 10.5106H27.6107L26.8393 6.29993C26.775 6.01064 26.5179 5.78564 26.1965 5.78564H18.9643C18.6429 5.78564 18.3857 6.01064 18.3215 6.29993L17.5179 10.5106H6.75003C6.39646 10.5106 6.10718 10.7999 6.10718 11.1535V15.9106C6.10718 16.1678 6.26789 16.4249 6.52504 16.5214C7.61789 16.9392 8.06789 18.6428 7.84289 21.5678C7.84289 21.7606 7.87503 21.9214 8.0036 22.0499C8.13218 22.1785 8.29289 22.2428 8.48575 22.2428H13.7572C13.9179 22.2428 14.0786 22.1785 14.2072 22.0499C14.3358 21.9214 14.4 21.7606 14.4 21.5999V16.9714H16.2965L12.1822 38.3464C12.15 38.5392 12.1822 38.7321 12.3107 38.8928C12.4393 39.0535 12.6 39.1178 12.7929 39.1178H22.05C22.1465 39.1821 22.2429 39.1821 22.3393 39.1821C22.4357 39.1821 22.5643 39.1499 22.6286 39.1178H32.1429C32.3357 39.1178 32.5286 39.0214 32.625 38.8928C32.7536 38.7321 32.7857 38.5392 32.7536 38.3785L28.8 17.0035H30.7286V21.6321C30.7286 21.7928 30.7929 21.9535 30.9215 22.0821C31.05 22.2106 31.2108 22.2749 31.3715 22.2749H36.3536C36.7072 22.2749 36.9965 21.9856 36.9965 21.6321C36.9965 21.5678 36.9965 21.5356 36.9643 21.4714C36.9 20.7964 36.8036 19.0928 37.1572 18.0321C37.5429 16.8106 38.475 16.5856 38.5072 16.5856C38.7965 16.5214 39.0215 16.2642 39.0215 15.9428V11.1535C39.0215 10.7999 38.7322 10.5106 38.3786 10.5106ZM19.5108 7.03921H25.6822L26.325 10.4785H18.8679L19.5108 7.03921ZM31.3715 37.8321H22.9822V36.9321C22.9822 36.5785 22.6929 36.2892 22.3393 36.2892C21.9857 36.2892 21.6965 36.5785 21.6965 36.9321V37.8321H13.5643L17.5822 16.9714H27.5143L31.3715 37.8321ZM37.7357 15.4606C37.1893 15.7178 36.3536 16.2964 35.9357 17.5821C35.5822 18.6749 35.6143 20.0892 35.6465 20.9571H32.0143V16.3285C32.0143 16.1678 31.95 16.0071 31.8215 15.8785C31.6929 15.7499 31.5322 15.6856 31.3715 15.6856H28.1893C28.0929 15.6535 27.9965 15.6535 27.9 15.6856H27.8679H13.725C13.5643 15.6856 13.4036 15.7499 13.275 15.8785C13.1465 16.0071 13.0822 16.1678 13.0822 16.3285V20.9571H9.1286C9.25718 18.0642 8.6786 16.2642 7.36075 15.4928V11.7964H37.7357V15.4606Z" fill="#EC632A"/>
<path d="M22.3394 25.6822C22.693 25.6822 22.9822 25.3929 22.9822 25.0393V23.4322C22.9822 23.0786 22.693 22.7893 22.3394 22.7893C21.9858 22.7893 21.6965 23.0786 21.6965 23.4322V25.0393C21.6965 25.425 21.9858 25.6822 22.3394 25.6822Z" fill="#EC632A"/>
<path d="M22.3394 21.1822C22.693 21.1822 22.9822 20.8929 22.9822 20.5393V18.9322C22.9822 18.5786 22.693 18.2893 22.3394 18.2893C21.9858 18.2893 21.6965 18.5786 21.6965 18.9322V20.5393C21.6965 20.925 21.9858 21.1822 22.3394 21.1822Z" fill="#EC632A"/>
<path d="M22.3394 34.6822C22.693 34.6822 22.9822 34.3929 22.9822 34.0393V32.4322C22.9822 32.0786 22.693 31.7893 22.3394 31.7893C21.9858 31.7893 21.6965 32.0786 21.6965 32.4322V34.0393C21.6965 34.425 21.9858 34.6822 22.3394 34.6822Z" fill="#EC632A"/>
<path d="M22.3394 30.1822C22.693 30.1822 22.9822 29.8929 22.9822 29.5393V27.9322C22.9822 27.5786 22.693 27.2893 22.3394 27.2893C21.9858 27.2893 21.6965 27.5786 21.6965 27.9322V29.5393C21.6965 29.925 21.9858 30.1822 22.3394 30.1822Z" fill="#EC632A"/>
</svg>
