<svg width="45" height="45" viewBox="0 0 45 45" fill="none" xmlns="http://www.w3.org/2000/svg">
<path d="M43.4571 36.4178H39.6L42.8785 24.1714C43.0071 23.6893 42.8464 23.2071 42.4928 22.8857C42.4607 22.8536 42.4285 22.8536 42.3964 22.8214L39.8893 13.8857C39.8571 13.8214 39.825 13.725 39.7928 13.6607C39.7285 13.5 39.6321 13.3714 39.4714 13.3071C39.2464 13.1786 33.7821 10.5428 24.525 14.3678C15.4928 18.1286 11.8928 20.1857 11.7321 20.2821C11.7 20.3143 11.6678 20.3464 11.6035 20.3786C11.3785 20.3143 11.1214 20.2178 10.9285 20.1536V14.2714H15.7178C16.0714 14.2714 16.3607 13.9821 16.3607 13.6286V7.71427C16.3607 7.3607 16.0714 7.07141 15.7178 7.07141H4.91782C4.56425 7.07141 4.27496 7.3607 4.27496 7.71427V13.6286C4.27496 13.9821 4.56425 14.2714 4.91782 14.2714H9.61069V19.6714C7.48926 18.7714 6.58925 17.9357 6.58925 17.9357C6.42854 17.775 6.23568 17.7107 6.04282 17.775C5.84996 17.8071 5.6571 17.9357 5.56068 18.1286L3.24641 22.9821C2.92498 23.3036 2.79639 23.7536 2.89282 24.2036L5.81783 36.4821H1.28568C0.932108 36.4821 0.642822 36.7714 0.642822 37.125C0.642822 37.4786 0.932108 37.7678 1.28568 37.7678H6.71783C6.8464 37.8321 7.0071 37.8321 7.16782 37.8321H18.5785H27.6107H38.25C38.4107 37.8321 38.5392 37.8 38.6678 37.7678H43.4571C43.8107 37.7678 44.1 37.4786 44.1 37.125C44.1 36.7714 43.8107 36.4178 43.4571 36.4178ZM11.3143 11.475V12.9857H8.83925V11.475H11.3143ZM8.80712 10.1893V8.35713H11.2821V10.1893H8.80712ZM12.6 12.9857V11.475H15.075V12.9857H12.6ZM15.075 10.1893H12.6V8.35713H15.075V10.1893ZM7.5214 8.35713V10.1893H5.56068V8.35713H7.5214ZM5.56068 11.475H7.5214V12.9857H5.56068V11.475ZM11.1214 25.875C11.8928 26.0678 12.7285 26.2286 13.5964 26.3893C13.5642 26.4536 13.5321 26.55 13.5321 26.6464V36.45H11.1214V25.875ZM32.85 26.325C33.6535 26.1643 34.425 26.0036 35.1321 25.8428V36.45H32.8821V26.5178C32.8821 26.4214 32.85 26.3893 32.85 26.325ZM31.5964 36.4178H28.8964V30.7286C28.8964 30.0214 28.3178 29.4428 27.6107 29.4428H18.5785C17.8714 29.4428 17.2928 30.0214 17.2928 30.7286V36.4178H14.8178V26.6143V26.5821C17.325 27 20.0893 27.2893 22.8857 27.2893C26.0035 27.2893 28.9607 26.9678 31.5643 26.5178L31.5964 36.4178ZM23.8178 30.7286H27.6107V36.4178H23.8178V30.7286ZM22.5321 36.4178H18.5785V30.7286H22.5321V36.4178ZM36.4178 36.4178V25.7786C36.4178 25.6821 36.3857 25.5857 36.3535 25.5214C39.0857 24.8143 40.95 24.1071 41.4642 23.9143C41.4964 23.9464 41.5285 23.9786 41.5928 23.9786L38.25 36.4178H36.4178ZM25.0071 15.5893C32.3678 12.5357 37.1892 13.8536 38.5071 14.3357C38.4107 14.5928 38.2821 14.9464 38.025 15.3964C34.2964 14.7536 29.6035 15.525 24.4928 17.6464L24.0107 17.8393C20.3143 19.3821 17.8393 20.4107 15.7821 21.4393C14.8821 21.2786 14.0785 21.0857 13.3393 20.925C14.9464 20.0571 18.6428 18.225 25.0071 15.5893ZM37.2857 16.5857C35.4857 19.0928 31.3714 22.4357 22.4357 22.1143C20.8285 22.05 19.3821 21.9214 18.0643 21.7607C19.7357 20.9893 21.6964 20.1857 24.525 19.0286L25.0071 18.8357C30.7607 16.425 34.7785 16.2643 37.2857 16.5857ZM6.3964 19.3821C7.03926 19.8321 8.16426 20.5071 9.93212 21.1821C9.9964 21.2464 10.0928 21.2786 10.1893 21.2786C12.825 22.2428 16.7464 23.175 22.4035 23.4C26.7107 23.5607 32.6893 22.95 36.7714 19.0928C37.9285 18 38.6678 16.9071 39.15 16.0393L41.0464 22.725C39.9535 23.1428 32.0464 26.0357 22.8857 26.0357C14.3678 26.0357 6.04283 23.175 4.78926 22.725L6.3964 19.3821ZM4.17854 23.85C4.17854 23.85 6.42853 24.7178 9.89996 25.5536C9.86782 25.6178 9.86783 25.6821 9.86783 25.7786V36.4178H7.16782L4.17854 23.85Z" fill="#EC632A"/>
</svg>
