<svg width="62" height="62" viewBox="0 0 62 62" fill="none" xmlns="http://www.w3.org/2000/svg">
<path d="M53.71 24.0743C53.6584 22.8766 52.6778 21.9393 51.4906 21.9393L50.3035 22.0956C49.168 22.1476 48.239 23.0849 48.1874 24.2305H48.1358C48.1358 24.2305 46.9486 24.6992 44.7292 24.6992C44.6776 24.6992 44.6776 24.6992 44.626 24.6992V13.4515C44.626 13.3994 44.626 13.3994 44.626 13.3473V13.087C44.4712 11.0041 42.7163 9.3898 40.6518 9.3898H35.8001V8.92115C35.8001 6.94238 34.2001 5.32812 32.2387 5.32812H29.4C27.4387 5.32812 25.8386 6.94238 25.8386 8.92115V9.3898H20.7805C18.5611 9.3898 16.7546 11.2124 16.7546 13.4515V24.543L13.9159 24.1785C13.8126 23.0849 12.9352 22.1997 11.7997 22.1476L10.7674 21.9914H10.6126C9.42547 21.9914 8.4448 22.9287 8.39319 24.1264L5.8125 39.0192V39.1754C5.8125 40.3731 6.74155 41.3625 7.92867 41.4146L8.96094 41.5708H9.11578C9.88998 41.5708 10.561 41.1542 10.9739 40.5814L11.8513 40.7376C12.5223 42.0394 13.6062 43.7578 14.8965 44.0703C14.9481 44.6431 15.1546 45.1638 15.5159 45.6325C15.9288 46.1532 16.4965 46.5177 17.1159 46.726C16.5482 47.1946 16.1869 47.8716 16.1352 48.6006C16.032 49.4338 16.2385 50.2149 16.7546 50.8397C17.3224 51.5687 18.1998 52.0374 19.1288 52.0374C19.7998 52.0374 20.4192 51.8291 20.9869 51.4125L21.1418 51.3084C21.1934 51.9333 21.3998 52.5061 21.7611 52.9747C22.3289 53.7037 23.2063 54.1724 24.1354 54.1724C24.8064 54.1724 25.3741 53.9641 25.8902 53.5996C25.9935 54.0162 26.1483 54.4327 26.458 54.8493C27.0257 55.5783 27.9032 56.047 28.8322 56.047C29.1935 56.047 29.5548 55.9949 29.8645 55.8387C30.4839 56.2553 31.5161 56.6719 32.5484 56.6719C33.3226 56.6719 34.0968 56.4636 34.7678 55.8908C35.5936 55.2138 35.9033 54.3807 36.0065 53.5996C36.3162 53.7037 36.6259 53.7558 36.9356 53.7558C37.9162 53.7558 38.9485 53.2871 39.5679 52.3498C39.9808 51.777 40.1872 51.2042 40.1872 50.5794C40.2905 50.5794 40.3421 50.5794 40.4453 50.5794C41.3744 50.5794 42.3034 50.1628 42.9228 49.3296C43.3357 48.7568 43.5421 48.1319 43.4905 47.455C43.8002 47.5591 44.0583 47.5591 44.368 47.5591C45.297 47.5591 46.226 47.1426 46.8454 46.3615C47.3615 45.7366 47.6196 44.9034 47.568 44.1223C49.3229 43.2371 49.9939 41.5187 50.2519 40.4772L50.8713 40.3731C51.2326 41.1542 52.0068 41.727 52.8842 41.727H52.9874L54.0713 41.5708C55.2584 41.5187 56.1875 40.5293 56.1875 39.3316L53.71 24.0743ZM27.9548 8.97322C27.9548 8.14005 28.6258 7.46311 29.4516 7.46311H32.2903C33.1162 7.46311 33.7871 8.14005 33.7871 8.97322V9.18151H27.9548V8.97322ZM18.9224 13.1911C19.0772 12.2538 19.8514 11.5248 20.8321 11.5248H40.7034C41.7357 11.5248 42.6131 12.358 42.6131 13.4515V13.9722C42.6131 15.274 41.7873 16.3676 40.6518 16.8883C40.3421 16.1072 39.5679 15.5344 38.6904 15.5344H37.3485C36.3678 15.5344 35.542 16.2113 35.2839 17.1486H26.6644C26.458 16.2113 25.6322 15.5344 24.5999 15.5344H23.2579C22.3289 15.5344 21.5031 16.1593 21.245 17.0445C19.903 16.68 18.8708 15.4302 18.8708 14.0243V13.1911H18.9224ZM38.7421 17.5652V19.1274V19.2836C38.7421 19.3357 38.7421 19.3357 38.6904 19.3357H37.3485C37.2969 19.3357 37.2969 19.3357 37.2969 19.2836V19.1274V17.5652C37.2969 17.5132 37.2969 17.5132 37.3485 17.5132L38.7421 17.5652C38.7421 17.5132 38.6905 17.5132 38.7421 17.5652ZM24.6515 17.5652V19.1274V19.2836C24.6515 19.3357 24.6515 19.3357 24.5999 19.3357H23.2579C23.2063 19.3357 23.2063 19.3357 23.2063 19.2836V19.1274V17.5652C23.2063 17.5132 23.2063 17.5132 23.2579 17.5132L24.6515 17.5652C24.6515 17.5132 24.6515 17.5132 24.6515 17.5652ZM18.8708 18.0339C19.5418 18.5546 20.316 18.9191 21.1418 19.0753V19.3357C21.1418 20.5334 22.0708 21.4707 23.2579 21.4707H24.5999C25.787 21.4707 26.7161 20.5334 26.7161 19.3357V19.1795H35.2323V19.3357C35.2323 20.5334 36.1614 21.4707 37.3485 21.4707H38.6904C39.8776 21.4707 40.8066 20.5334 40.8066 19.3357V18.9712C41.4776 18.7629 42.097 18.4505 42.6131 18.0339V24.4388C41.8905 24.2826 41.1679 24.0743 40.3937 23.9181C38.0711 23.3453 35.9033 22.7725 34.5613 23.0849C33.7871 23.2412 32.342 23.866 30.8452 24.543C30.8452 24.543 30.7935 24.543 30.7935 24.4909L28.2129 23.5015C27.2322 23.137 26.1999 23.0329 25.1676 23.2412L18.8708 24.4388V18.0339ZM9.37384 39.1234V39.2796C9.37384 39.3316 9.32224 39.3837 9.27063 39.4358L8.28997 39.2796H8.13512C8.0835 39.2796 8.0319 39.2275 7.98028 39.1754L10.561 24.3347V24.1785C10.561 24.1264 10.6126 24.0743 10.6642 24.0222L11.6449 24.1785H11.7997C11.8513 24.1785 11.9029 24.2305 11.9545 24.2826L9.37384 39.1234ZM17.2191 44.3306C16.9095 43.914 16.9611 43.2892 17.374 42.9767L20.2643 40.7376C20.4708 40.5814 20.6773 40.5293 20.8321 40.5293C21.1418 40.5293 21.3998 40.6855 21.6063 40.8938C21.7611 41.1021 21.8128 41.3625 21.8128 41.6228C21.8128 41.8832 21.6579 42.0915 21.4515 42.2477L18.5611 44.4868C18.3546 44.6431 18.1482 44.6951 17.9933 44.6951C17.6837 44.6951 17.374 44.591 17.2191 44.3306ZM19.7482 49.7462C19.5418 49.9024 19.3353 49.9545 19.1805 49.9545C18.8708 49.9545 18.6127 49.7983 18.4062 49.59C18.2514 49.3817 18.1998 49.1213 18.1998 48.861C18.1998 48.6006 18.3546 48.3923 18.5611 48.184L22.7418 44.7993C22.9483 44.6431 23.1547 44.591 23.3095 44.591C23.6192 44.591 23.8773 44.7472 24.0838 44.9555C24.2386 45.1638 24.2902 45.4242 24.2902 45.6845C24.2902 45.9449 24.1354 46.1532 23.9289 46.3615L19.7482 49.7462ZM27.6967 49.5379L24.8064 51.777C24.5999 51.9332 24.3934 51.9853 24.2386 51.9853C23.9289 51.9853 23.6709 51.8291 23.4644 51.6208C23.3096 51.4125 23.2579 51.1522 23.2579 50.8918C23.2579 50.6314 23.4128 50.4231 23.6192 50.2669L26.5096 48.0278C26.7161 47.8716 26.9225 47.8195 27.0774 47.8195C27.387 47.8195 27.6451 47.9757 27.8516 48.184C28.1612 48.6006 28.1096 49.2255 27.6967 49.5379ZM29.5032 53.5996C29.2967 53.7558 29.0903 53.8079 28.9355 53.8079C28.6258 53.8079 28.3677 53.6517 28.1613 53.4434C27.8516 53.0268 27.9032 52.4019 28.3161 52.0895L31.2065 49.8503C31.4129 49.6941 31.6194 49.6421 31.7742 49.6421C32.0839 49.6421 32.342 49.7983 32.5484 50.0066C32.8581 50.4231 32.8065 51.048 32.3936 51.3605L29.5032 53.5996ZM33.5291 54.1203C33.0646 54.4848 32.4452 54.4327 31.929 54.3286L33.6323 52.9747C33.7871 52.8706 33.8904 52.7664 33.9936 52.6102C34.1484 53.0268 34.1484 53.6516 33.5291 54.1203ZM45.3486 44.9034C44.9873 45.32 44.368 45.4242 43.9034 45.1638L36.471 40.3731C36.0065 40.0607 35.3356 40.2169 35.0259 40.6855C34.871 40.8938 34.871 41.1021 34.871 41.3625C34.7678 41.7791 34.9226 42.2477 35.2839 42.5081L41.1679 46.6218C41.3744 46.778 41.5292 46.9863 41.5292 47.2467C41.5292 47.5071 41.5292 47.7674 41.3744 47.9757C41.0647 48.3923 40.4453 48.4964 40.0324 48.184L34.1484 44.0703C33.6839 43.7578 33.0129 43.862 32.7033 44.3306C32.3936 44.7993 32.4968 45.4762 32.9613 45.7887L37.5549 49.0172C37.6066 49.2255 37.7614 49.3817 37.9162 49.4858C38.3292 49.7983 38.3808 50.4752 38.0195 50.9959C37.6582 51.5167 36.9872 51.6729 36.5227 51.3605L35.0259 50.319C34.9743 50.2669 34.871 50.2148 34.8194 50.2148C34.7678 49.6941 34.5613 49.2255 34.2517 48.7568C33.6839 48.0278 32.8065 47.5591 31.8774 47.5591C31.2065 47.5591 30.6387 47.7674 30.1226 48.1319C30.0193 47.7154 29.8645 47.2988 29.5548 46.8822C28.9871 46.1532 28.1096 45.6845 27.1806 45.6845C26.9225 45.6845 26.6644 45.7366 26.458 45.7887C26.5096 45.0076 26.3032 44.2786 25.8386 43.6537C25.3225 42.9767 24.5999 42.5602 23.8257 42.5081C23.8773 42.2998 23.9289 42.0915 23.9805 41.8832C24.0838 41.05 23.8773 40.269 23.3612 39.6441C22.7934 38.9151 21.916 38.4464 20.9869 38.4464C20.316 38.4464 19.6966 38.6547 19.1288 39.0713L16.2385 41.3104C15.9288 41.5708 15.6707 41.8311 15.4643 42.1956V41.9874C15.5159 41.9874 15.5159 41.9874 15.5159 41.9874C15.103 41.8311 14.2255 40.5293 13.6062 39.2796L13.3481 38.7588L11.5932 38.4985L13.7094 26.2093L17.0643 26.6259C17.2191 26.6259 17.374 26.678 17.4772 26.678C17.6837 26.678 17.8901 26.678 18.0966 26.6259L25.5806 25.2199C26.1999 25.1158 26.8709 25.1678 27.4903 25.3761L28.3161 25.6886C26.9741 26.3655 25.8386 26.9383 25.5806 27.0945C25.4257 27.1466 25.3225 27.2508 25.2193 27.407L21.7095 32.1977C21.1934 32.9267 21.0385 33.864 21.2966 34.7492C21.5547 35.6345 22.2257 36.2594 23.0515 36.5197C24.3934 36.9363 27.0257 36.5718 28.3677 34.2806L28.4193 34.1764C28.6774 33.7078 28.8838 33.4474 29.0387 33.3953L30.6387 33.0308C30.9484 32.9267 31.3097 33.135 31.4129 33.4995C31.7226 34.5409 32.5484 35.9469 34.5097 36.728C35.0775 36.9363 35.6968 37.0925 36.3162 37.0925L45.1422 43.2892C45.4002 43.4454 45.5551 43.7578 45.6067 44.0703C45.6583 44.3306 45.5551 44.6431 45.3486 44.9034ZM49.3229 38.3943C48.8584 38.4464 48.4971 38.863 48.4454 39.3316C48.4454 39.3316 48.239 41.2583 46.8454 42.0394C46.6906 41.8832 46.4841 41.727 46.3293 41.5708L39.3614 36.6759C41.3227 36.1031 42.9228 35.1658 43.2324 35.0096C43.7486 34.6972 43.9034 34.0723 43.5938 33.6036C43.2841 33.0829 42.6647 32.9267 42.2002 33.2391C41.2711 33.8119 38.8453 34.9575 36.884 35.0617C36.7291 35.0096 36.5743 35.0096 36.4194 35.0617C36.0065 35.0617 35.6452 34.9575 35.3356 34.8534C34.3549 34.4889 33.7355 33.8119 33.4775 32.9267C33.0129 31.5207 31.671 30.7396 30.2774 31.0521L28.6774 31.4166C27.6451 31.6769 27.129 32.5101 26.7677 33.135L26.7161 33.2391C25.8386 34.6972 24.2386 34.7492 23.7741 34.593C23.4644 34.4889 23.3612 34.2806 23.3095 34.1244C23.2579 33.864 23.2579 33.6557 23.4128 33.4474L26.7677 28.8129C28.7806 27.7715 33.6323 25.3241 35.0775 25.0116C35.9033 24.8033 38.1743 25.3761 39.9808 25.8448C41.8389 26.3134 43.5938 26.7821 44.8325 26.7821C46.7422 26.7821 48.0325 26.4697 48.6003 26.3134L50.6132 38.134L49.3229 38.3943ZM54.0713 39.2796L52.9358 39.4358C52.8842 39.4358 52.8326 39.3837 52.8326 39.2796L50.2519 24.2826C50.2519 24.2305 50.3035 24.1785 50.4068 24.1785L51.5423 24.0222C51.5939 24.0222 51.6455 24.0743 51.6455 24.1785L54.2262 39.1754C54.2262 39.2796 54.1746 39.2796 54.0713 39.2796Z" fill="#EC632A"/>
</svg>
