<svg width="62" height="62" viewBox="0 0 62 62" fill="none" xmlns="http://www.w3.org/2000/svg">
<path d="M41.0432 23.4544C40.7443 22.6042 40.0269 21.9968 39.1301 21.8146L34.9451 21.2073L33.0918 17.3205C32.6733 16.531 31.8961 15.9844 30.9993 15.9844C30.1025 15.9844 29.3253 16.4702 28.9068 17.3205L27.0535 21.1466L22.8685 21.7539C21.9717 21.8754 21.2543 22.4827 20.9554 23.3937C20.6564 24.2439 20.8956 25.2156 21.5532 25.823L24.6022 28.7988L23.8849 33.0501C23.7653 33.7181 23.9446 34.4469 24.4229 34.9935C25.1403 35.8437 26.336 36.0867 27.2926 35.5401L30.9993 33.5359L34.7657 35.5401C35.1244 35.7223 35.4832 35.8438 35.8419 35.8438C36.5593 35.8438 37.1572 35.5401 37.6355 34.9935C38.0539 34.4469 38.2931 33.7789 38.1735 33.0501L37.4561 28.8596L40.5051 25.823C41.103 25.2156 41.3421 24.3047 41.0432 23.4544ZM35.7223 27.1591C35.1843 27.7057 34.9451 28.4952 35.0647 29.2847L35.7821 33.4752L32.0754 31.471C31.7167 31.2888 31.358 31.2281 30.9993 31.2281C30.6406 31.2281 30.2221 31.3496 29.9231 31.471L26.2763 33.4145L26.9937 29.224C27.1132 28.4344 26.8741 27.6449 26.336 27.0983L23.3468 24.1832L27.472 23.5759C28.2492 23.4544 28.9068 22.9686 29.2057 22.3005L31.0591 18.5351L32.9124 22.3005C33.2711 23.0293 33.9288 23.5151 34.6462 23.5759L38.7713 24.1832L35.7223 27.1591Z" fill="#EC632A"/>
<path d="M30.7578 8.71875C21.5338 8.71875 14.0469 16.2871 14.0469 25.6719C14.0469 35.0566 21.5338 42.625 30.7578 42.625C39.9818 42.625 47.4688 35.0566 47.4688 25.6719C47.4688 16.2871 39.9818 8.71875 30.7578 8.71875ZM30.7578 40.1426C22.8515 40.1426 16.4427 33.6035 16.4427 25.6113C16.4427 17.6191 22.8515 11.0801 30.7578 11.0801C38.664 11.0801 45.0729 17.6191 45.0729 25.6113C45.0729 33.6035 38.664 40.1426 30.7578 40.1426Z" fill="#EC632A"/>
<path d="M46.9323 41.5288C50.8854 37.5433 53.2812 32.0707 53.2812 26.0628C53.2812 13.8089 43.2786 3.875 31 3.875C18.7214 3.875 8.71875 13.8089 8.71875 26.0628C8.71875 32.1897 11.2344 37.7218 15.2474 41.7667L11.2943 50.9868C10.9948 51.7007 11.1146 52.5334 11.5938 53.1283C12.0729 53.7231 12.8516 54.0206 13.6302 53.9016L18.1823 53.1283L20.4584 57.1138L20.5182 57.1732C20.9375 57.7681 21.5964 58.125 22.2552 58.125C22.3151 58.125 22.375 58.125 22.4349 58.125C23.2136 58.0655 23.8724 57.5896 24.1719 56.9353L28.1849 48.1911C29.1432 48.31 30.1016 48.3695 31.0599 48.3695C32.138 48.3695 33.1562 48.31 34.1745 48.1316L38.1875 56.8758C38.487 57.5896 39.1458 58.006 39.9245 58.0655C39.9844 58.0655 40.0443 58.0655 40.1042 58.0655C40.8229 58.0655 41.4818 57.7086 41.8412 57.1138L44.1172 53.0688L48.6693 53.8421C49.4479 53.9611 50.2266 53.7231 50.7057 53.0688C51.1849 52.474 51.3047 51.6412 51.0052 50.9274L46.9323 41.5288ZM22.1354 55.2103L20.099 51.5817C19.6797 50.8084 18.8411 50.4515 18.0026 50.5705L13.75 51.3437L17.1641 43.3728C19.6198 45.3358 22.5547 46.7634 25.7292 47.5962L22.1354 55.2103ZM11.1146 26.0033C11.1146 15.0581 20.0391 6.1949 31 6.1949C41.9609 6.1949 50.8854 15.0581 50.8854 26.0033C50.8854 36.9485 41.9609 45.8117 31 45.8117C20.0391 45.8117 11.1146 36.9485 11.1146 26.0033ZM44.2969 50.6299C43.4583 50.511 42.6198 50.8679 42.2005 51.6412L40.1641 55.2697L36.6302 47.5367C39.8047 46.7039 42.6797 45.2168 45.1354 43.2538L48.6693 51.4032L44.2969 50.6299Z" fill="#EC632A"/>
</svg>
