<svg width="62" height="62" viewBox="0 0 62 62" fill="none" xmlns="http://www.w3.org/2000/svg">
<path d="M14.3247 36.962L9.20518 39.8839C8.72522 40.1713 8.56525 40.7461 8.88522 41.2252C9.09853 41.5126 9.41848 41.6562 9.79178 41.6562C10.0051 41.6562 10.1651 41.6083 10.3784 41.5125L15.4979 38.5906C15.9779 38.3032 16.1379 37.7284 15.8179 37.2494C15.4979 36.8183 14.858 36.6746 14.3247 36.962Z" fill="#EC632A"/>
<path d="M13.0781 28.5781C13.0781 27.7789 12.6222 27.125 12.0651 27.125H6.3412C5.78401 27.125 5.32812 27.7789 5.32812 28.5781C5.32812 29.3773 5.78401 30.0312 6.3412 30.0312H12.0651C12.6222 30.0312 13.0781 29.3773 13.0781 28.5781Z" fill="#EC632A"/>
<path d="M15.4526 17.9691L10.2244 15.1338C9.71185 14.8851 9.09677 15.0343 8.84049 15.5317C8.58421 16.0292 8.738 16.6261 9.25056 16.8748L14.4787 19.7102C14.6325 19.8096 14.7862 19.8594 14.9913 19.8594C15.3501 19.8594 15.7089 19.6604 15.8626 19.3619C16.1189 18.8645 15.9651 18.2179 15.4526 17.9691Z" fill="#EC632A"/>
<path d="M20.9197 12.5433C21.1201 12.8642 21.4206 13.0781 21.7712 13.0781C21.9215 13.0781 22.1218 13.0246 22.2721 12.9177C22.7229 12.5968 22.9233 11.955 22.6227 11.4737L19.7677 6.33946C19.4672 5.85812 18.8662 5.64419 18.4154 5.96508C17.9646 6.28597 17.7643 6.92775 18.0648 7.40909L20.9197 12.5433Z" fill="#EC632A"/>
<path d="M56.1432 27.125H50.4193C49.8621 27.125 49.4062 27.7789 49.4062 28.5781C49.4062 29.3773 49.8621 30.0312 50.4193 30.0312H56.1432C56.7004 30.0312 57.1562 29.3773 57.1562 28.5781C57.1562 27.7789 56.7004 27.125 56.1432 27.125Z" fill="#EC632A"/>
<path d="M47.4931 19.8594C47.6469 19.8594 47.8519 19.8096 48.0057 19.7102L53.2338 16.8748C53.7464 16.6261 53.9002 15.9794 53.6439 15.5317C53.3876 15.0343 52.7213 14.8851 52.2599 15.1338L47.0318 17.9691C46.5193 18.2179 46.3655 18.8645 46.6217 19.3122C46.7755 19.6604 47.1343 19.8594 47.4931 19.8594Z" fill="#EC632A"/>
<path d="M40.2212 12.9179C40.3708 13.0247 40.5702 13.0781 40.7198 13.0781C41.0687 13.0781 41.3679 12.9179 41.5673 12.5442L44.409 7.41848C44.7082 6.93795 44.5586 6.24383 44.06 5.97687C43.6113 5.65651 42.9632 5.8167 42.714 6.35063L39.8722 11.4763C39.5731 11.9569 39.7227 12.5976 40.2212 12.9179Z" fill="#EC632A"/>
<path d="M31.2422 10.1719C31.9082 10.1719 32.4531 9.70578 32.4531 9.1361V2.97327C32.4531 2.4036 31.9082 1.9375 31.2422 1.9375C30.5762 1.9375 30.0312 2.4036 30.0312 2.97327V9.1361C30.0312 9.70578 30.5762 10.1719 31.2422 10.1719Z" fill="#EC632A"/>
<path d="M32.2109 22.2812C29.1283 22.2812 26.6406 24.769 26.6406 27.8516C26.6406 30.9342 29.1283 33.4219 32.2109 33.4219C35.2935 33.4219 37.7812 30.9342 37.7812 27.8516C37.7812 24.769 35.2935 22.2812 32.2109 22.2812ZM32.2109 31.2586C30.3181 31.2586 28.8039 29.7444 28.8039 27.8516C28.8039 25.9587 30.3181 24.4445 32.2109 24.4445C34.1038 24.4445 35.618 25.9587 35.618 27.8516C35.618 29.7444 34.1038 31.2586 32.2109 31.2586Z" fill="#EC632A"/>
<path d="M42.4847 25.481C42.2244 25.3253 41.912 25.2734 41.5997 25.3772C41.4435 25.4291 41.2873 25.481 41.1832 25.481C40.4023 25.481 39.7776 24.8582 39.7776 24.0797C39.7776 23.5607 40.0379 23.0936 40.5064 22.8341C40.7667 22.6784 40.975 22.4189 41.027 22.1594C41.0791 21.8999 41.027 21.5366 40.8188 21.329C40.1941 20.5505 39.5173 19.8239 38.6844 19.2011C38.4761 19.0454 38.1638 18.9416 37.9035 18.9935C37.6432 19.0454 37.3829 19.2011 37.2267 19.4087C36.9664 19.772 36.5499 19.9796 36.0814 19.9796C35.3005 19.9796 34.6758 19.3568 34.6758 18.5783C34.6758 18.4745 34.6758 18.3707 34.7279 18.3188C34.7799 18.0593 34.7279 17.7479 34.5717 17.5403C34.4155 17.3327 34.1552 17.177 33.8949 17.1251C32.8017 16.9175 31.8646 16.9175 30.7193 17.0213C30.407 17.0732 30.1467 17.2289 29.9905 17.4365C29.8343 17.696 29.7302 17.9555 29.8343 18.2669C29.8343 18.3707 29.8864 18.4745 29.8864 18.5783C29.8864 19.3568 29.2617 19.9796 28.4808 19.9796C27.9602 19.9796 27.4917 19.6682 27.2314 19.253C27.0752 18.9935 26.867 18.7859 26.5546 18.734C26.2943 18.6821 25.9819 18.734 25.7217 18.8897C24.8366 19.4606 24.0558 20.1872 23.379 21.0176C23.1708 21.2252 23.1187 21.5366 23.1708 21.7961C23.2228 22.0556 23.379 22.3151 23.5872 22.5227C23.9517 22.7822 24.1599 23.1974 24.1599 23.6645C24.1599 24.443 23.5352 25.0658 22.7543 25.0658C22.6502 25.0658 22.5461 25.0658 22.3899 25.0139C22.1296 24.962 21.8172 24.962 21.5569 25.1177C21.2966 25.2734 21.1405 25.5329 21.0884 25.7924C20.9322 26.5709 20.8281 27.4012 20.8281 28.1797C20.8281 28.5949 20.8281 29.0101 20.8802 29.4253C20.9322 29.7367 21.0884 29.9962 21.3487 30.2038C21.609 30.3595 21.9214 30.4114 22.2337 30.3076C22.3899 30.2557 22.5461 30.2038 22.6502 30.2038C23.4311 30.2038 24.0558 30.8266 24.0558 31.6051C24.0558 32.176 23.6914 32.695 23.1708 32.9026C22.8584 33.0064 22.6502 33.2659 22.5981 33.5773C22.5461 33.8887 22.5461 34.2001 22.7543 34.4596C23.4311 35.4457 24.264 36.328 25.2531 37.0546C25.5134 37.2622 25.8778 37.3141 26.1902 37.2103C26.5026 37.1065 26.7628 36.8989 26.867 36.5875C27.0752 36.0166 27.5958 35.6533 28.1684 35.6533C28.9493 35.6533 29.574 36.2761 29.574 37.0546C29.574 37.2622 29.522 37.4698 29.4179 37.6255C29.2617 37.9369 29.3137 38.2483 29.4699 38.5597C29.6261 38.8711 29.8864 39.0268 30.2508 39.0787C30.8755 39.1825 31.4481 39.2344 31.9687 39.2344C32.5414 39.2344 33.114 39.1825 33.7908 39.0787C34.1032 39.0268 34.4155 38.8192 34.5717 38.5078C34.7279 38.1964 34.7279 37.885 34.5717 37.5736C34.4676 37.366 34.4155 37.1584 34.4155 36.9508C34.4155 36.1723 35.0402 35.5495 35.8211 35.5495C36.3938 35.5495 36.9144 35.9128 37.1226 36.4837C37.2267 36.7951 37.487 37.0546 37.7994 37.1065C38.1117 37.2103 38.4761 37.1584 38.7364 36.9508C39.6214 36.2761 40.4023 35.4457 41.0791 34.5634C41.2352 34.3039 41.3394 33.9925 41.2353 33.733C41.1832 33.4216 40.975 33.214 40.7147 33.0583C40.2461 32.7988 39.9338 32.3317 39.9338 31.8127C39.9338 31.0342 40.5585 30.4114 41.3394 30.4114C41.4435 30.4114 41.5476 30.4114 41.7038 30.4633C42.0161 30.5671 42.3285 30.5152 42.5367 30.3595C42.797 30.2038 42.9532 29.9443 43.0053 29.6329C43.1094 29.062 43.1094 28.5949 43.1094 28.1278C43.1094 27.5569 43.0573 26.9341 42.9532 26.3114C42.9011 25.9481 42.745 25.6367 42.4847 25.481ZM41.027 28.2835C39.205 28.4392 37.7994 29.9443 37.7994 31.7608C37.7994 32.6431 38.1117 33.4735 38.6844 34.0963C38.5282 34.252 38.4241 34.4077 38.2679 34.5634C37.6432 33.8887 36.7061 33.4735 35.7691 33.4735C33.8429 33.4735 32.2811 35.0305 32.2811 36.9508C32.2811 37.0027 32.2811 37.0546 32.2811 37.1065C32.0729 37.1065 31.8646 37.1065 31.6564 37.1065C31.6564 37.0546 31.6564 37.0546 31.6564 37.0027C31.6564 35.0824 30.0946 33.5254 28.1684 33.5254C27.1793 33.5254 26.2943 33.9406 25.6696 34.6153C25.4614 34.4077 25.3052 34.252 25.097 34.0444C25.7737 33.4216 26.1382 32.4874 26.1382 31.5532C26.1382 29.6848 24.6805 28.1797 22.8584 28.0759C22.8584 27.7645 22.8584 27.4012 22.9105 27.0898C24.7326 26.986 26.1902 25.481 26.1902 23.6126C26.1902 22.886 25.982 22.2113 25.5655 21.6404C25.7217 21.4847 25.9299 21.329 26.0861 21.1733C26.7108 21.7442 27.5437 22.0556 28.4287 22.0556C30.1987 22.0556 31.6564 20.7581 31.9167 19.0454C32.177 19.0454 32.3852 19.0454 32.6455 19.0973C32.8538 20.81 34.3114 22.1594 36.1335 22.1594C36.8623 22.1594 37.5911 21.8999 38.1638 21.4847C38.3199 21.5885 38.4241 21.7442 38.5802 21.8999C38.0596 22.5227 37.7473 23.3531 37.7473 24.1835C37.7473 26.0518 39.257 27.6088 41.0791 27.6607C41.0791 27.8164 41.0791 28.024 41.0791 28.1797C41.027 28.1278 41.027 28.2317 41.027 28.2835Z" fill="#EC632A"/>
<path d="M46.5249 26.4257L46.931 22.7807C46.931 22.6794 46.931 22.6288 46.931 22.5276C46.5249 19.1357 42.6165 15.9969 41.8551 15.3894C39.8248 13.8201 35.6118 12.7063 32.7693 12.6051C29.47 12.4532 24.1911 13.8201 20.5872 17.2119C17.9478 19.6419 16.5265 22.8819 16.4758 26.4763C16.2727 35.2344 20.5364 41.36 21.8562 42.98C21.9069 43.0813 21.9577 43.1825 22.0084 43.2838L23.6835 50.9281C23.2267 51.3331 22.9221 51.9406 22.9221 52.5988C22.9221 53.5606 23.5312 54.3706 24.3941 54.725C24.3433 54.9275 24.2926 55.13 24.2926 55.3325V55.535C24.2926 56.6994 25.257 57.6612 26.4245 57.6612H27.1351C27.1351 57.7625 27.0843 57.8638 27.0843 57.965V58.6737C27.0843 59.7369 27.9472 60.5469 28.9624 60.5469H35.561C36.6269 60.5469 37.4391 59.6862 37.4391 58.6737V57.965C37.4391 57.8638 37.4391 57.7625 37.3883 57.6612H38.0989C39.2664 57.6612 40.2308 56.6994 40.2308 55.535V55.3325C40.2308 55.13 40.1801 54.9275 40.1293 54.725C40.9922 54.4213 41.6013 53.5606 41.6013 52.5988C41.6013 52.0925 41.449 51.6369 41.1445 51.2825C41.1952 51.1813 41.1952 51.08 41.1952 50.9281V46.4732C41.1952 45.6125 41.9059 44.9038 42.7688 44.9038H42.8703C45.3067 44.9038 47.2863 42.9294 47.2863 40.4994V35.69L50.078 35.0319C50.3826 34.9813 50.6363 34.7282 50.7886 34.4244C50.8901 34.1207 50.8901 33.7663 50.7379 33.5132L46.5249 26.4257ZM35.358 58.5219H29.0639V58.0663H35.358V58.5219ZM39.3172 52.3456C39.4694 52.3456 39.571 52.4469 39.571 52.5988C39.571 52.7506 39.4694 52.8519 39.3172 52.8519H25.054C24.9017 52.8519 24.8002 52.7506 24.8002 52.5988C24.8002 52.4469 24.9017 52.3456 25.054 52.3456H39.3172ZM38.2005 55.4844C38.2005 55.535 38.1497 55.5856 38.0989 55.5856H26.3737C26.3229 55.5856 26.2722 55.535 26.2722 55.4844V55.2819C26.2722 55.2313 26.3229 55.1806 26.3737 55.1806H38.0989C38.1497 55.1806 38.2005 55.2313 38.2005 55.2819V55.4844ZM46.1188 33.8675C45.662 33.9688 45.3574 34.3738 45.3574 34.8294V40.4488C45.3574 41.765 44.2915 42.8282 42.9718 42.8282H42.8703C40.8907 42.8282 39.2664 44.4482 39.2664 46.4225V50.3206H25.6123L23.988 42.8282C23.8865 42.4232 23.7342 42.0688 23.4805 41.7144C22.6176 40.6007 18.3538 34.7788 18.5061 26.4763C18.5569 23.3882 19.7243 20.7557 22.0084 18.6801C25.46 15.4907 30.2821 14.4782 32.7185 14.5794C35.5103 14.7313 39.1649 15.7944 40.6369 16.9588C42.5657 18.4776 44.6468 20.8063 44.9514 22.6288L44.4946 26.5269C44.4438 26.7294 44.4946 26.9826 44.6468 27.1851L48.403 33.3613L46.1188 33.8675Z" fill="#EC632A"/>
</svg>
