<svg width="62" height="62" viewBox="0 0 62 62" fill="none" xmlns="http://www.w3.org/2000/svg">
<path d="M18.1069 50.5848L13.8382 48.3188C13.1445 47.9411 12.3441 47.9411 11.6504 48.3188L7.38166 50.5848C7.27494 50.6388 7.22158 50.6388 7.11486 50.5848C7.0615 50.5309 7.00813 50.4769 7.00813 50.369L7.80853 45.5672C7.91525 44.8119 7.70181 44.0026 7.11486 43.4631L3.64648 40.0641C3.59312 40.0101 3.53976 39.9022 3.59312 39.8482C3.64648 39.7943 3.69984 39.6864 3.80656 39.6864L8.55557 38.985C9.30261 38.8771 9.99628 38.3915 10.3164 37.6901L12.4508 33.32C12.5575 33.1581 12.771 33.1581 12.8777 33.32L15.0121 37.6901C15.3322 38.3915 16.0259 38.8771 16.773 38.985L21.522 39.6864C22.1089 39.7943 22.6425 39.3627 22.7492 38.7692C22.8559 38.1757 22.4291 37.6362 21.8421 37.5283L17.0931 36.8269C17.0398 36.8269 16.933 36.7729 16.933 36.719L14.7986 32.3488C14.3718 31.5395 13.5714 31 12.6643 31C11.7571 31 10.9567 31.4856 10.5299 32.3488L8.39549 36.719C8.34213 36.7729 8.28877 36.8269 8.23541 36.8269L3.48641 37.5283C2.5793 37.6362 1.83226 38.2836 1.56546 39.1469C1.29866 40.0101 1.5121 40.9812 2.15242 41.5747L5.6208 44.9737C5.67416 45.0277 5.67414 45.0816 5.67414 45.1896L4.87375 49.9913C4.71367 50.9085 5.0872 51.7718 5.83423 52.3113C6.26111 52.635 6.74135 52.7969 7.22158 52.7969C7.5951 52.7969 7.96861 52.689 8.34212 52.5271L12.6109 50.2611C12.6643 50.2071 12.771 50.2071 12.8243 50.2611L17.0931 52.5271C17.6267 52.7969 18.267 52.5811 18.5338 52.0955C18.854 51.502 18.6405 50.8546 18.1069 50.5848Z" fill="#EC632A"/>
<path d="M60.3337 41.3654C60.9724 40.7308 61.1853 39.8317 60.9192 38.9856C60.6531 38.1394 59.9079 37.5048 59.0031 37.399L54.2659 36.7115C54.2127 36.7115 54.1062 36.6586 54.1062 36.6058L51.9772 32.3221C51.5514 31.5288 50.753 31 49.8481 31C48.9433 31 48.1449 31.476 47.7191 32.3221L45.59 36.6058C45.5368 36.6586 45.4836 36.7115 45.4303 36.7115L40.64 37.399C40.0545 37.5048 39.6287 38.0337 39.7351 38.6154C39.8416 39.1971 40.3738 39.5673 40.9593 39.5144L45.7497 38.8269C46.4949 38.7211 47.1868 38.2452 47.5062 37.5577L49.6352 33.274C49.7417 33.1154 49.9546 33.1154 50.061 33.274L52.1901 37.5577C52.5094 38.2452 53.2014 38.7211 53.9466 38.8269L58.7369 39.5144C58.8434 39.5144 58.8966 39.5673 58.9498 39.6731C59.0031 39.7788 58.9498 39.8317 58.8966 39.8846L55.4369 43.2163C54.9046 43.7452 54.6385 44.5385 54.7449 45.2789L55.5433 49.9856C55.5433 50.0913 55.5433 50.1442 55.4369 50.1971C55.3837 50.25 55.2772 50.25 55.1708 50.1971L50.9126 47.976C50.2207 47.6058 49.4223 47.6058 48.7304 47.976L44.4723 50.1971C43.94 50.4615 43.7271 51.0962 44.0464 51.625C44.3126 52.1539 44.9513 52.3654 45.4836 52.0481L49.7417 49.8269C49.7949 49.774 49.9014 49.774 49.9546 49.8269L54.2127 52.0481C54.5853 52.2067 54.9578 52.3125 55.3304 52.3125C55.8095 52.3125 56.2885 52.1539 56.7143 51.8365C57.4595 51.3077 57.8321 50.4086 57.6724 49.5625L56.874 44.8558C56.874 44.8029 56.874 44.6971 56.9272 44.6442L60.3337 41.3654Z" fill="#EC632A"/>
<path d="M41.7453 43.802L36.2975 43.0018C36.1388 43.0018 36.0331 42.8952 35.9802 42.7885L33.5471 37.7744C33.4943 37.6143 33.3885 37.5077 33.2827 37.3476C42.5916 36.4408 49.8906 28.653 49.8906 19.2115C49.8906 9.18334 41.6396 0.96875 31.4844 0.96875C21.3292 0.96875 13.0781 9.12999 13.0781 19.2115C13.0781 24.2256 15.088 28.8663 18.7375 32.3869C21.6466 35.1606 25.349 36.8676 29.2629 37.3476C29.1571 37.5077 29.0514 37.6677 28.9456 37.8277L26.5126 42.8418C26.4597 42.9485 26.3539 43.0552 26.1952 43.0552L20.7474 43.8553C19.7953 44.0153 19.002 44.6554 18.6846 45.6156C18.3673 46.5757 18.6317 47.5359 19.3193 48.2293L23.2862 52.1232C23.392 52.2299 23.4449 52.3899 23.392 52.4966L22.4399 57.9908C22.3341 58.7376 22.4928 59.4844 23.0217 60.0711C23.7622 60.9779 25.0845 61.2446 26.1423 60.7112L31.0084 58.0975C31.1141 58.0441 31.2728 58.0441 31.4315 58.0975L36.2975 60.7112C36.6678 60.9246 37.0909 61.0312 37.4611 61.0312C38.2016 61.0312 38.9421 60.7112 39.4181 60.1245C39.8941 59.5377 40.1057 58.7909 39.9999 58.0441L39.0479 52.55C39.0479 52.3899 39.0479 52.2832 39.1537 52.1766L43.1205 48.2826C43.8081 47.5892 44.0726 46.5757 43.7552 45.6689C43.4907 44.6021 42.6974 43.962 41.7453 43.802ZM15.1409 19.2115C15.1409 10.3568 22.4399 3.10241 31.4315 3.10241C40.423 3.10241 47.7221 10.3035 47.7221 19.2115C47.7221 23.1055 46.294 26.6793 43.9668 29.4531C42.6974 26.5193 40.2115 23.7456 37.0909 22.1453C38.9421 20.5451 40.1057 18.2514 40.1057 15.6376C40.1057 10.8903 36.1917 7.04968 31.4315 7.04968C26.6713 7.04968 22.7573 10.8903 22.7573 15.6376C22.7573 18.198 23.9209 20.4917 25.7192 22.092C22.5457 23.5855 20.1127 26.306 19.0549 29.6665C16.5161 26.786 15.1409 23.1055 15.1409 19.2115ZM34.7108 21.2385C33.7587 21.7719 32.648 22.092 31.4315 22.092C30.215 22.092 29.1043 21.7719 28.1522 21.1852C26.1952 20.065 24.8729 17.9847 24.8729 15.5843C24.8729 12.0104 27.8349 9.13 31.4315 9.13C35.0281 9.13 37.99 12.0104 37.99 15.5843C37.99 18.038 36.6678 20.1183 34.7108 21.2385ZM20.8003 31.4267C21.4879 27.7462 24.344 24.7591 27.9406 23.5322C28.9985 24.0123 30.1621 24.279 31.4315 24.279C32.648 24.279 33.8116 24.0123 34.8694 23.5855C38.4661 24.8657 41.3222 28.0662 42.38 31.2134C39.471 33.8271 35.6628 35.374 31.4315 35.374C27.5175 35.3207 23.7622 33.9338 20.8003 31.4267ZM41.6395 46.6824L37.6727 50.5763C37.0909 51.1631 36.7735 52.0165 36.9322 52.87L37.8843 58.3642C37.8843 58.4709 37.8843 58.6309 37.7785 58.6842C37.6727 58.8443 37.4611 58.8976 37.2496 58.7909L32.3835 56.1772C32.0133 55.9638 31.5902 55.8571 31.2199 55.8571C30.8497 55.8571 30.3737 55.9638 30.0563 56.1772L25.1903 58.7909C24.9787 58.8976 24.7672 58.8443 24.6614 58.6842C24.5556 58.5775 24.5556 58.4709 24.5556 58.3642L25.5076 52.87C25.6663 52.0165 25.4019 51.1631 24.7672 50.5763L20.8003 46.6824C20.6416 46.5224 20.6416 46.309 20.6945 46.2557C20.7474 46.2023 20.8003 45.989 21.0647 45.9356L26.5126 45.1355C27.3588 45.0288 28.0464 44.4954 28.4167 43.7486L30.8497 38.7345C30.9555 38.5212 31.1141 38.4678 31.2199 38.4678C31.3257 38.4678 31.4844 38.5212 31.5902 38.7345L34.0232 43.7486C34.3934 44.4954 35.1339 45.0288 35.9273 45.1355L41.3751 45.9356C41.5867 45.989 41.6924 46.149 41.7453 46.2023C41.7982 46.309 41.7982 46.469 41.6395 46.6824Z" fill="#EC632A"/>
</svg>
