<svg width="62" height="62" viewBox="0 0 62 62" fill="none" xmlns="http://www.w3.org/2000/svg">
<path d="M57.203 26.7564C55.1353 26.7564 53.422 28.1909 53.0085 30.1632H26.1875V28.4299H31.1499C31.2681 28.4299 31.4453 28.4299 31.5635 28.3702L40.8386 25.0231H48.3414C48.9913 26.5174 50.5273 27.5932 52.2405 27.5932C54.6036 27.5932 56.5531 25.6208 56.5531 23.2301C56.5531 20.8393 54.6036 18.867 52.2405 18.867C50.0547 18.867 48.2823 20.5405 47.9869 22.6324H40.6023C40.4841 22.6324 40.3069 22.6324 40.1888 22.6922L30.9136 26.0392H26.1875V22.9312H31.209C31.3862 22.9312 31.5044 22.8715 31.6816 22.8117L45.6829 16.7153C46.4509 17.4923 47.5143 17.9704 48.6959 17.9704C51.059 17.9704 53.0085 15.9981 53.0085 13.6073C53.0085 11.2166 51.059 9.24422 48.6959 9.24422C46.3328 9.24422 44.3832 11.2166 44.3832 13.6073C44.3832 13.9659 44.4423 14.3245 44.5014 14.6234L41.4294 15.9383L38.062 11.9338C37.8257 11.6947 37.5303 11.5154 37.1758 11.5154C36.8214 11.5154 36.526 11.635 36.2897 11.874L33.3358 15.0418L27.7825 12.7108L27.4871 8.82584C27.4281 8.22815 26.8964 7.75 26.3056 7.75H20.3979C19.748 7.75 19.2163 8.28792 19.2163 8.94537V13.1292L14.1357 15.0418L10.7092 12.1131C10.2366 11.6947 9.52768 11.7545 9.11414 12.1729L5.27412 16.1774C4.86058 16.6555 4.8015 17.313 5.21504 17.7911L7.99167 20.8991L5.92397 26.1587L1.61133 26.338C0.961485 26.3978 0.429789 26.9357 0.488867 27.5932L0.725176 33.2114C0.725176 33.8689 1.25687 34.347 1.90672 34.347H5.27412L7.28275 39.9055L4.38796 43.0135C3.97442 43.4916 3.97442 44.2089 4.44704 44.687L8.52337 48.6915C8.99598 49.1099 9.70491 49.1697 10.1775 48.6915L13.1314 45.9422L19.3936 48.6317V53.0546C19.3936 53.7121 19.9253 54.25 20.5751 54.25H25.833C26.4828 54.25 27.0145 53.7121 27.0145 53.0546V48.9904L32.9222 46.7191L36.2306 49.6478C36.4669 49.8869 36.7623 49.9467 37.1167 49.9467C37.4121 49.9467 37.7075 49.7673 37.9438 49.5283L40.7205 46.1215L40.7795 46.0617L45.3875 48.0938C45.3875 48.1536 45.3875 48.1536 45.3875 48.2134C45.3875 50.6041 47.3371 52.5765 49.7002 52.5765C52.0633 52.5765 54.0128 50.6041 54.0128 48.2134C54.0128 45.8226 52.0633 43.8503 49.7002 43.8503C48.2233 43.8503 46.8645 44.6272 46.0965 45.8226L31.9179 39.6067C31.7407 39.5469 31.6226 39.4871 31.4453 39.4871H26.1875V36.4389H31.0318L40.3069 39.786C40.4251 39.8458 40.5432 39.8458 40.7205 39.8458H47.8097C48.2233 41.8779 49.9365 43.3721 52.0633 43.3721C54.4264 43.3721 56.3759 41.3997 56.3759 39.009C56.3759 36.6183 54.4264 34.6459 52.0633 34.6459C50.2319 34.6459 48.6959 35.7815 48.046 37.455H40.9568L31.6816 34.108C31.5635 34.0482 31.4453 34.0482 31.2681 34.0482H26.1875V32.554H53.1267C53.7174 34.2275 55.3125 35.4826 57.203 35.4826C59.5661 35.4826 61.5156 33.5103 61.5156 31.1195C61.5156 28.7288 59.5661 26.7564 57.203 26.7564ZM52.2996 21.2577C53.363 21.2577 54.2491 22.1542 54.2491 23.2301C54.2491 24.3059 53.363 25.2024 52.2996 25.2024C51.2362 25.2024 50.35 24.3059 50.35 23.2301C50.35 22.0945 51.1771 21.2577 52.2996 21.2577ZM49.6411 46.3008C50.7045 46.3008 51.5907 47.1973 51.5907 48.2731C51.5907 49.349 50.7045 50.2455 49.6411 50.2455C48.5777 50.2455 47.6916 49.349 47.6916 48.2731C47.6916 47.1375 48.5777 46.3008 49.6411 46.3008ZM52.0633 37.0366C53.1267 37.0366 54.0128 37.9332 54.0128 39.009C54.0128 40.0848 53.1267 40.9814 52.0633 40.9814C51.059 40.9814 50.1728 40.1446 50.1137 39.1285C50.1728 38.9492 50.2319 38.8297 50.2319 38.6504C50.2319 38.5906 50.2319 38.5308 50.2319 38.4113C50.4682 37.6343 51.1771 37.0366 52.0633 37.0366ZM23.8244 21.1979C23.7653 21.3772 23.7062 21.5566 23.7062 21.7359C23.7062 21.9152 23.7653 22.0945 23.8244 22.2738V42.1767C23.7653 42.1767 23.6471 42.1767 23.5881 42.1767C17.3259 42.1767 12.2452 37.0366 12.2452 30.7012C12.2452 24.3657 17.3259 19.2256 23.5881 19.2256C23.6471 19.2256 23.7653 19.2256 23.8244 19.2256V21.1979ZM48.6959 11.635C49.7593 11.635 50.6454 12.5315 50.6454 13.6073C50.6454 14.6832 49.7593 15.5797 48.6959 15.5797C47.6325 15.5797 46.7463 14.6832 46.7463 13.6073C46.7463 12.5315 47.6325 11.635 48.6959 11.635ZM31.1499 41.8779L38.5346 45.1054L36.9395 47.0778L33.9856 44.5077C33.6312 44.2089 33.2176 44.1491 32.8041 44.2686L25.4785 47.0778C25.0059 47.2571 24.7105 47.6754 24.7105 48.2134V51.8593H21.8157V47.8548C21.8157 47.3766 21.5203 46.9582 21.1068 46.7789L13.4268 43.4916C13.0132 43.3123 12.4815 43.3721 12.1862 43.7307L9.52768 46.241L7.10551 43.8503L9.70491 41.0411C10.0003 40.7423 10.1185 40.2641 9.94122 39.8458L7.4009 32.7931C7.22367 32.3149 6.81013 32.0161 6.27843 32.0161H3.20642L3.08826 28.7288L6.98736 28.5495C7.45998 28.5495 7.87352 28.2506 8.05075 27.7725L10.7092 21.0784C10.8865 20.66 10.7683 20.1819 10.4729 19.8233L7.99167 17.0141L10.2957 14.6234L13.1905 17.313C13.5449 17.6118 13.9585 17.6716 14.372 17.5521L20.8705 15.1015C21.3431 14.9222 21.6385 14.5039 21.6385 13.9659V10.2005H25.2422L25.5376 13.7269C25.5967 14.205 25.833 14.5636 26.2465 14.7429L33.2176 17.6716C33.6903 17.8509 34.222 17.7314 34.5173 17.3727L37.1167 14.5636L39.1844 16.9544L30.9727 20.5405H26.2465V18.1497C26.2465 17.5521 25.7739 17.0141 25.1831 16.9544C24.5924 16.8946 24.1198 16.8348 23.5881 16.8348C16.0262 16.8348 9.88214 23.0508 9.88214 30.7012C9.88214 38.3515 16.0262 44.5675 23.5881 44.5675C24.0607 44.5675 24.5924 44.5077 25.1831 44.4479C25.7739 44.3882 26.2465 43.8503 26.2465 43.2526V41.8779H31.1499ZM57.203 33.0919C56.3168 33.0919 55.5488 32.4942 55.3716 31.6575C55.3716 31.5379 55.4307 31.4781 55.4307 31.3586C55.4307 31.1793 55.3716 31.0598 55.3125 30.8805C55.4307 29.9242 56.2578 29.1472 57.203 29.1472C58.2664 29.1472 59.1525 30.0437 59.1525 31.1195C59.1525 32.1954 58.2664 33.0919 57.203 33.0919Z" fill="#EC632A"/>
</svg>
