<svg width="62" height="62" viewBox="0 0 62 62" fill="none" xmlns="http://www.w3.org/2000/svg">
<g clip-path="url(#clip0_3822_7546)">
<path d="M60.789 29.4986L54.4921 24.7033C54.3953 24.6548 54.3468 24.6064 54.25 24.558H54.2015C54.1046 24.5095 54.0078 24.5095 53.9109 24.5095H38.9437C38.8468 24.5095 38.7984 24.5095 38.7015 24.558H38.6531C38.6046 24.6064 38.5078 24.6064 38.4593 24.6548L31.0968 29.4501C30.8062 29.6439 30.6609 29.9345 30.6609 30.2736V48.1955C30.6609 48.7283 31.0968 49.1642 31.6296 49.1642H60.2078C60.7406 49.1642 61.1765 48.7283 61.1765 48.1955V30.2736C61.1765 29.983 61.0312 29.6923 60.789 29.4986ZM52.9421 26.447V46.6939H39.9124V26.447H52.9421ZM32.5499 30.8064L37.9749 27.2705V47.2267H32.5499V30.8064ZM59.239 47.1783H54.8796V27.4158L59.239 30.758V47.1783Z" fill="#EC632A"/>
<path d="M41.5109 10.8016H1.9375C1.40469 10.8016 0.96875 10.3657 0.96875 9.83286V5.42505C0.96875 4.89224 1.40469 4.4563 1.9375 4.4563H36.5219C36.7641 4.4563 37.0062 4.55317 37.1516 4.69849L41.9953 9.05786C42.2375 9.25161 42.4313 9.54224 42.4313 9.83286C42.4797 10.3657 42.0437 10.8016 41.5109 10.8016ZM2.90625 8.86411H38.9437L36.1828 6.3938H2.90625V8.86411Z" fill="#EC632A"/>
<path d="M40.5423 16.0329C40.2517 16.0329 39.9611 15.8875 39.7673 15.6938L36.2798 11.3829L33.083 15.5001C32.7439 15.936 32.1626 15.9844 31.7267 15.6454C31.2908 15.3063 31.2423 14.725 31.5814 14.2891L35.5533 9.20318C35.747 8.96099 35.9892 8.81567 36.3283 8.81567C36.6189 8.81567 36.9095 8.96098 37.1033 9.15473L41.3658 14.386C41.7048 14.8219 41.6564 15.4032 41.2205 15.7422C40.9783 15.9844 40.7845 16.0329 40.5423 16.0329Z" fill="#EC632A"/>
<path d="M42.2861 20.683H29.5955C29.0626 20.683 28.6267 20.2471 28.6267 19.7143V15.1611C28.6267 14.6283 29.0626 14.1924 29.5955 14.1924H42.2861C42.8189 14.1924 43.2548 14.6283 43.2548 15.1611V19.7143C43.2548 20.2471 42.8189 20.683 42.2861 20.683ZM30.5642 18.7455H41.3173V16.1299H30.5642V18.7455Z" fill="#EC632A"/>
<path d="M34.2453 61.8547H2.71254C2.42191 61.8547 2.17973 61.7579 1.98598 61.5157C1.79223 61.3219 1.69535 61.0313 1.74379 60.7407C2.80941 52.2641 10.0266 45.8704 18.4547 45.8704C26.8829 45.8704 34.1 52.2641 35.1657 60.7407C35.2141 61.0313 35.1172 61.2735 34.9235 61.5157C34.8266 61.7579 34.536 61.8547 34.2453 61.8547ZM3.87504 59.9172H33.1313C31.7266 52.9422 25.6235 47.8079 18.5032 47.8079C11.3828 47.8079 5.27973 52.9422 3.87504 59.9172Z" fill="#EC632A"/>
<path d="M18.1156 46.1124C13.3203 46.1124 9.20307 42.4795 8.57338 37.6358C8.52494 37.3452 8.62182 37.103 8.81557 36.8608C9.00932 36.667 9.2515 36.5217 9.54213 36.5217H26.6406C26.9312 36.5217 27.1734 36.6186 27.3671 36.8608C27.5609 37.0545 27.6578 37.3452 27.6093 37.6358C27.0281 42.4311 22.9109 46.1124 18.1156 46.1124ZM10.7531 38.4592C11.6734 41.753 14.6765 44.1264 18.1156 44.1264C21.5546 44.1264 24.6062 41.753 25.4781 38.4592H10.7531Z" fill="#EC632A"/>
<path d="M9.15472 34.8264C9.10629 34.8264 9.10628 34.8264 9.05785 34.8264C8.52503 34.778 8.13754 34.2936 8.18597 33.7608C8.57347 28.6264 12.9328 24.6545 18.0672 24.6545C23.2016 24.6545 27.561 28.6749 27.9485 33.7608C27.9969 34.2936 27.6094 34.778 27.0766 34.8264C26.5438 34.8749 26.0594 34.4874 26.011 33.9545C25.6719 29.8374 22.1844 26.6405 18.0672 26.6405C13.95 26.6405 10.4141 29.8858 10.1235 34.003C10.1235 34.4389 9.68754 34.8264 9.15472 34.8264Z" fill="#EC632A"/>
<path d="M27.5126 38.0721H8.96108C7.65327 38.0721 6.58765 37.0065 6.58765 35.6986C6.58765 34.3908 7.65327 33.3252 8.96108 33.3252H27.5126C28.8205 33.3252 29.8861 34.3908 29.8861 35.6986C29.8861 37.0065 28.8205 38.0721 27.5126 38.0721ZM8.96108 35.2627C8.7189 35.2627 8.52515 35.4565 8.52515 35.6986C8.52515 35.9408 8.7189 36.1346 8.96108 36.1346H27.5126C27.7548 36.1346 27.9486 35.9408 27.9486 35.6986C27.9486 35.4565 27.7548 35.2627 27.5126 35.2627H8.96108Z" fill="#EC632A"/>
<path d="M13.4172 35.1173C12.8844 35.1173 12.4485 34.6814 12.4485 34.1486V30.0798C12.4485 29.547 12.8844 29.1111 13.4172 29.1111C13.95 29.1111 14.386 29.547 14.386 30.0798V34.1486C14.386 34.6814 13.95 35.1173 13.4172 35.1173Z" fill="#EC632A"/>
<path d="M22.9109 35.1173C22.3781 35.1173 21.9421 34.6814 21.9421 34.1486V30.0798C21.9421 29.547 22.3781 29.1111 22.9109 29.1111C23.4437 29.1111 23.8796 29.547 23.8796 30.0798V34.1486C23.8796 34.6814 23.4437 35.1173 22.9109 35.1173Z" fill="#EC632A"/>
<path d="M20.1501 31.4361H16.6626L15.936 24.3643H20.9251L20.1501 31.4361Z" fill="white"/>
<path d="M20.15 32.4049H16.6625C16.1781 32.4049 15.7422 32.0174 15.6937 31.533L14.9672 24.4611C14.9187 24.1705 15.0156 23.9283 15.2094 23.7346C15.4031 23.5408 15.6453 23.3955 15.9359 23.3955H20.925C21.2156 23.3955 21.4578 23.4924 21.6516 23.7346C21.8453 23.9283 21.9422 24.219 21.8937 24.5096L21.1187 31.5815C21.0703 32.0174 20.6344 32.4049 20.15 32.4049ZM17.5344 30.4674H19.2781L19.8594 25.333H17.05L17.5344 30.4674Z" fill="#EC632A"/>
<path d="M12.739 26.3016C12.739 26.8344 13.175 27.2703 13.7078 27.2703C14.2406 27.2703 14.6765 26.8344 14.6765 26.3016V8.96094H12.739V26.3016Z" fill="#EC632A"/>
<path d="M6.29688 51.2467C6.29688 51.7795 6.73281 52.2155 7.26562 52.2155C7.79844 52.2155 8.23438 51.7795 8.23438 51.2467V8.91235H6.29688V51.2467Z" fill="#EC632A"/>
<path d="M8.23438 2.42188H12.6906V6.44219H14.6281V1.45313C14.6281 0.920313 14.1922 0.484375 13.6594 0.484375H7.26562C6.73281 0.484375 6.29688 0.920313 6.29688 1.45313V6.44219H8.23438V2.42188Z" fill="#EC632A"/>
</g>
<defs>
<clipPath id="clip0_3822_7546">
<rect width="62" height="62" fill="white"/>
</clipPath>
</defs>
</svg>
