<svg width="25" height="25" viewBox="0 0 25 25" fill="none" xmlns="http://www.w3.org/2000/svg">
<path d="M12.3261 23.8637C12.1663 23.8637 11.9745 23.8001 11.8786 23.6728C11.5271 23.3226 3.40918 14.8238 3.40918 10.0491C3.40918 5.14717 7.40421 1.13647 12.358 1.13647C17.3119 1.13647 21.3069 5.11534 21.3069 10.0491C21.3069 14.8238 13.189 23.3226 12.8374 23.6728C12.6776 23.8001 12.4859 23.8637 12.3261 23.8637ZM12.3261 2.44154C8.10734 2.44154 4.65564 5.84745 4.65564 10.081C4.65564 11.7998 6.02993 14.5373 8.65066 17.975C10.0889 19.8849 11.559 21.5401 12.2941 22.304C13.0292 21.5083 14.4994 19.8849 15.9376 17.975C18.5583 14.5373 19.9326 11.7998 19.9326 10.081C19.9646 5.84745 16.5448 2.44154 12.3261 2.44154Z" fill="#EB6329"/>
<path d="M12.5178 14.4417C9.99295 14.4417 7.91553 12.4045 7.91553 9.85807C7.91553 7.31159 9.96099 5.27441 12.5178 5.27441C15.0746 5.27441 17.1201 7.31159 17.1201 9.85807C17.1201 12.4045 15.0427 14.4417 12.5178 14.4417ZM12.5178 6.57948C10.6961 6.57948 9.19394 8.0437 9.19394 9.8899C9.19394 11.7043 10.6641 13.2003 12.5178 13.2003C14.3395 13.2003 15.8417 11.7361 15.8417 9.8899C15.8417 8.0437 14.3395 6.57948 12.5178 6.57948Z" fill="#EB6329"/>
</svg>
