<svg width="25" height="25" viewBox="0 0 25 25" fill="none" xmlns="http://www.w3.org/2000/svg">
<path d="M21.6803 20.9376H3.2412C2.22965 20.9376 1.42041 20.1284 1.42041 19.1168V6.08226C1.42041 5.07071 2.22965 4.26147 3.2412 4.26147H21.6803C22.6919 4.26147 23.5011 5.07071 23.5011 6.08226V19.1168C23.5011 20.1284 22.663 20.9376 21.6803 20.9376ZM3.21229 5.41753C2.83658 5.41753 2.54756 5.70655 2.54756 6.08226V19.1168C2.54756 19.4925 2.83658 19.7815 3.21229 19.7815H21.6514C22.0271 19.7815 22.3161 19.4925 22.3161 19.1168V6.08226C22.3161 5.70655 22.0271 5.41753 21.6514 5.41753H3.21229Z" fill="#EB6329"/>
<path d="M12.4262 15.7591C12.2822 15.7591 12.1383 15.7029 12.0231 15.5905L2.11879 5.67389C1.88846 5.44915 1.88846 5.08395 2.11879 4.8873C2.34913 4.66257 2.72342 4.66257 2.92496 4.8873L12.4262 14.4107L22.273 5.22441C22.5033 4.99968 22.8776 5.02777 23.0791 5.25251C23.3094 5.47725 23.2807 5.84245 23.0503 6.0391L12.8005 15.6186C12.7141 15.7029 12.5702 15.7591 12.4262 15.7591Z" fill="#EB6329"/>
<path d="M2.40311 20.6774C2.2586 20.6774 2.1141 20.6196 1.99849 20.504C1.76728 20.2728 1.76728 19.926 1.96959 19.6948L9.07934 12.3249C9.31056 12.0937 9.65737 12.0937 9.88858 12.296C10.1198 12.5272 10.1198 12.874 9.91748 13.1052L2.80773 20.4751C2.72102 20.6196 2.57652 20.6774 2.40311 20.6774Z" fill="#EB6329"/>
<path d="M22.4606 20.6774C22.3161 20.6774 22.1716 20.6196 22.056 20.504L14.9463 13.1342C14.715 12.9029 14.7439 12.5272 14.9752 12.3249C15.2064 12.0937 15.5821 12.1226 15.7844 12.3538L22.8941 19.7237C23.1254 19.9549 23.0965 20.3306 22.8652 20.5329C22.7496 20.6196 22.6051 20.6774 22.4606 20.6774Z" fill="#EB6329"/>
</svg>
