<svg width="25" height="25" viewBox="0 0 25 25" fill="none" xmlns="http://www.w3.org/2000/svg">
<path d="M20.0284 22.017C19.9147 22.017 19.7727 21.9885 19.6875 21.9033L11.534 15.6817C11.4204 15.5965 11.3352 15.4545 11.3068 15.284C11.2784 15.142 11.3352 14.9715 11.4488 14.8579L16.3636 9.20446L7.89768 13.6363C7.75564 13.7215 7.58518 13.7215 7.44314 13.6647L1.78973 11.7329C1.56246 11.6476 1.42041 11.4488 1.42041 11.1931C1.42041 10.9658 1.56246 10.7385 1.78973 10.6533L23.0113 2.86923C23.2102 2.81241 23.4091 2.84082 23.5795 2.95446C23.7216 3.0965 23.8068 3.29537 23.7784 3.49423L20.5681 21.5624C20.5397 21.7613 20.3977 21.9317 20.2272 21.9885C20.142 22.017 20.0852 22.017 20.0284 22.017ZM12.6988 15.1704L19.6306 20.4545L22.5284 4.28968L3.72155 11.1647L7.61359 12.4999L18.4943 6.81809C18.75 6.70446 19.034 6.76127 19.2045 6.96014C19.375 7.18741 19.375 7.4715 19.1761 7.69877L12.6988 15.1704Z" fill="white"/>
<path d="M10.3124 21.2214C10.2556 21.2214 10.1988 21.2214 10.142 21.1929C9.97153 21.1361 9.82949 21.0225 9.77267 20.852L6.78972 13.21C6.67608 12.9259 6.81812 12.585 7.10221 12.4714C7.38631 12.3577 7.72722 12.4998 7.84085 12.7839L10.5681 19.7157L14.2329 16.9884C14.4886 16.7895 14.8295 16.8464 15.0284 17.102C15.2272 17.3577 15.1704 17.6986 14.9147 17.8975L10.6534 21.0793C10.5397 21.193 10.4261 21.2214 10.3124 21.2214Z" fill="white"/>
<path d="M10.3125 21.2215C10.2556 21.2215 10.1988 21.2215 10.142 21.1931C9.8295 21.1078 9.65905 20.7953 9.74428 20.4828L11.3068 15.0851C11.392 14.7726 11.7045 14.6022 12.017 14.6874C12.3295 14.7726 12.5 15.0851 12.4147 15.3976L10.8522 20.7953C10.767 21.051 10.5397 21.2215 10.3125 21.2215Z" fill="white"/>
</svg>
