<svg width="25" height="25" viewBox="0 0 25 25" fill="none" xmlns="http://www.w3.org/2000/svg">
<path d="M12.3578 22.926C10.4544 22.926 8.57943 22.3863 6.96012 21.3919L3.03967 22.4715C2.8408 22.5283 2.64193 22.4715 2.49989 22.3294C2.35784 22.1874 2.30102 21.9601 2.35784 21.7897L3.4658 17.8408C2.49989 16.2215 1.98853 14.3749 1.98853 12.4715C1.98853 6.70443 6.64762 1.98853 12.3578 1.98853C18.0965 1.98853 22.7272 6.67603 22.7272 12.4715C22.7556 18.2101 18.0965 22.926 12.3578 22.926ZM7.07375 20.1988C7.18739 20.1988 7.30103 20.2272 7.38625 20.284C8.86353 21.2499 10.5965 21.7613 12.3863 21.7613C17.4715 21.7613 21.6192 17.5851 21.6192 12.4147C21.6192 7.24421 17.4715 3.12489 12.3578 3.12489C7.27262 3.12489 3.12489 7.30103 3.12489 12.4431C3.12489 14.2044 3.60784 15.9374 4.54534 17.4147C4.63057 17.5567 4.65898 17.7272 4.60217 17.8692L3.72148 21.1078L6.93171 20.2272C6.96011 20.2272 7.01693 20.1988 7.07375 20.1988Z" fill="white"/>
<path d="M14.4601 18.1534C14.3465 18.1534 14.2329 18.1534 14.1192 18.1534C12.8976 18.0681 10.9942 17.5568 8.97718 15.5965C7.24423 13.9488 6.78968 12.3579 6.56241 11.1931C6.19309 9.17609 7.72718 7.24427 7.81241 7.15905C8.01127 6.87496 8.38059 6.73291 8.80672 6.73291C9.26127 6.73291 9.74422 6.90336 10.0567 7.18746L11.3351 8.40905C11.5908 8.66473 11.7329 9.00564 11.7045 9.37496C11.676 9.71586 11.5056 10.0284 11.2499 10.2272L10.4829 10.9943C10.5113 11.3068 10.6533 12.0738 11.6476 13.0681C12.5851 14.034 13.4374 14.2897 13.8635 14.3465L14.4601 13.5511C14.6874 13.2386 15.0567 13.0397 15.4545 13.0397C15.767 13.0397 16.051 13.1534 16.2783 13.3522L17.6704 14.659C17.926 14.9147 18.0965 15.2556 18.0965 15.625C18.0965 15.9659 17.9544 16.2784 17.7272 16.534C17.4431 16.875 16.5056 18.1534 14.4601 18.1534ZM8.66468 7.86927C8.52263 8.03973 7.38627 9.57382 7.67036 10.9659C7.86922 11.9886 8.26695 13.3238 9.77263 14.7727C11.534 16.4772 13.1817 16.9318 14.2045 17.017C16.0226 17.1306 16.7044 15.9659 16.7329 15.909C16.7613 15.8522 16.8181 15.7954 16.8465 15.767C16.9033 15.7102 16.9033 15.6534 16.9033 15.625C16.9033 15.5965 16.9033 15.5397 16.8465 15.4829L15.4545 14.1761C15.426 14.1477 15.3692 14.1193 15.3124 14.2045L14.517 15.284C14.4033 15.4261 14.2613 15.5113 14.0908 15.5113C14.0908 15.5113 14.0624 15.5113 14.034 15.5113C13.7499 15.5113 12.301 15.4261 10.767 13.8636C9.09081 12.159 9.28968 10.8238 9.31808 10.6534C9.34649 10.5397 9.40331 10.4261 9.46013 10.3409L10.3976 9.37496C10.426 9.34655 10.4545 9.31814 10.4829 9.31814C10.5113 9.31814 10.5113 9.28973 10.5113 9.26132C10.5113 9.23291 10.5113 9.23291 10.4829 9.2045L9.20445 7.98291C9.14763 7.92609 8.94877 7.84086 8.7499 7.84086C8.72149 7.86927 8.69309 7.86927 8.66468 7.86927Z" fill="white"/>
</svg>
