<svg width="25" height="25" viewBox="0 0 25 25" fill="none" xmlns="http://www.w3.org/2000/svg">
<path d="M12.7983 21.4204C12.7699 21.4204 12.7699 21.4204 12.7983 21.4204C12.1165 21.392 11.4631 21.392 10.8097 21.3636C9.16193 21.3068 7.42898 21.2499 5.75284 21.1931C4.92898 21.1647 4.13352 21.0511 3.39489 20.9374C1.80398 20.7102 0.667614 19.5738 0.383523 17.9545C0.184659 16.7897 0.0710227 15.7386 0.0426136 14.7443C-0.0142045 13.1818 -0.0142045 11.6761 0.0426136 10.2556C0.0710227 9.17607 0.184659 8.03971 0.411932 6.90334C0.696023 5.34084 1.91761 4.23289 3.59375 4.03402C6.12216 3.72152 8.67898 3.69312 10.8381 3.69312C13.054 3.69312 15.3835 3.72152 18.2244 3.80675C19.1335 3.83516 20.1278 3.92039 21.2358 4.09084C22.9688 4.34652 24.0767 5.42607 24.3892 7.18743C24.7017 8.97721 24.8153 10.9374 24.7585 13.3238C24.7301 14.4602 24.6449 15.5965 24.5312 16.8465C24.4744 17.3579 24.3892 17.8977 24.2472 18.409C23.8494 19.8295 22.6847 20.7954 21.0938 20.9943C18.7642 21.2783 16.4062 21.3068 14.1335 21.3352H13.679C13.5653 21.3352 13.4801 21.3352 13.3665 21.3352H13.0824C12.9688 21.392 12.8835 21.4204 12.7983 21.4204ZM10.8381 4.82948C8.70739 4.82948 6.20739 4.85789 3.7358 5.17039C2.54261 5.31243 1.74716 6.02266 1.51989 7.13061C1.32102 8.21016 1.17898 9.2613 1.15057 10.3124C1.09375 11.7045 1.09375 13.1818 1.15057 14.7158C1.17898 15.6533 1.29261 16.6477 1.49148 17.784C1.69034 18.892 2.45739 19.659 3.53693 19.8295C4.24716 19.9431 5.0142 20.0283 5.78125 20.0568C7.45739 20.1136 9.19034 20.1704 10.8381 20.2272C11.4062 20.2556 11.9744 20.2556 12.571 20.284C12.6562 20.2556 12.7131 20.2272 12.7983 20.2272H13.3381C13.4233 20.2272 13.5369 20.2272 13.6222 20.2272H14.0767C16.321 20.1988 18.6506 20.1704 20.9233 19.8863C22.0597 19.7443 22.8551 19.1193 23.1108 18.1533C23.2244 17.6988 23.3097 17.2443 23.3665 16.7897C23.4801 15.5681 23.5653 14.4602 23.5937 13.3238C23.6506 10.9943 23.5369 9.11925 23.2244 7.41471C22.9972 6.1363 22.2869 5.42607 21.0369 5.25562C19.9858 5.11357 19.0483 4.99993 18.1676 4.97152C15.3551 4.85789 13.0256 4.82948 10.8381 4.82948ZM9.9858 16.6193C9.90057 16.6193 9.78693 16.5908 9.7017 16.534C9.53125 16.4204 9.41761 16.2499 9.41761 16.0511V8.97721C9.41761 8.77834 9.53125 8.57948 9.7017 8.49425C9.87216 8.40902 10.0994 8.38061 10.2699 8.49425L16.4062 12.017C16.5767 12.1306 16.6903 12.3011 16.6903 12.4999C16.6903 12.6988 16.5767 12.8977 16.4062 12.9829L10.2699 16.534C10.1847 16.5908 10.0994 16.6193 9.9858 16.6193ZM10.554 9.97152V15.0852L14.9858 12.5283L10.554 9.97152Z" fill="white"/>
</svg>
